<?xml version="1.0" encoding="UTF-8" standalone="no"?>
<!-- Created with Inkscape (http://www.inkscape.org/) -->

<svg
   xmlns:dc="http://purl.org/dc/elements/1.1/"
   xmlns:cc="http://creativecommons.org/ns#"
   xmlns:rdf="http://www.w3.org/1999/02/22-rdf-syntax-ns#"
   xmlns:svg="http://www.w3.org/2000/svg"
   xmlns="http://www.w3.org/2000/svg"
   xmlns:sodipodi="http://sodipodi.sourceforge.net/DTD/sodipodi-0.dtd"
   xmlns:inkscape="http://www.inkscape.org/namespaces/inkscape"
   id="svg2"
   version="1.1"
   inkscape:version="0.48.2 r9819"
   width="400"
   height="640"
   sodipodi:docname="cards.png"
   inkscape:export-filename="D:\Users\take\workspace\BBB\res\drawable-hdpi\usedSpeCard.png"
   inkscape:export-xdpi="90.099998"
   inkscape:export-ydpi="90.099998">
  <metadata
     id="metadata8">
    <rdf:RDF>
      <cc:Work
         rdf:about="">
        <dc:format>image/svg+xml</dc:format>
        <dc:type
           rdf:resource="http://purl.org/dc/dcmitype/StillImage" />
        <dc:title></dc:title>
      </cc:Work>
    </rdf:RDF>
  </metadata>
  <defs
     id="defs6">
    <inkscape:path-effect
       effect="spiro"
       id="path-effect3073"
       is_visible="true" />
    <inkscape:path-effect
       effect="spiro"
       id="path-effect3069"
       is_visible="true" />
    <inkscape:path-effect
       effect="spiro"
       id="path-effect3065"
       is_visible="true" />
    <inkscape:path-effect
       effect="spiro"
       id="path-effect3061"
       is_visible="true" />
    <inkscape:path-effect
       effect="spiro"
       id="path-effect3057"
       is_visible="true" />
    <inkscape:path-effect
       effect="spiro"
       id="path-effect3053"
       is_visible="true" />
    <inkscape:path-effect
       effect="spiro"
       id="path-effect3049"
       is_visible="true" />
    <inkscape:path-effect
       effect="spiro"
       id="path-effect3045"
       is_visible="true" />
    <inkscape:path-effect
       effect="spiro"
       id="path-effect3041"
       is_visible="true" />
    <inkscape:path-effect
       effect="spiro"
       id="path-effect3037"
       is_visible="true" />
    <inkscape:path-effect
       effect="spiro"
       id="path-effect3033"
       is_visible="true" />
    <inkscape:path-effect
       effect="spiro"
       id="path-effect3029"
       is_visible="true" />
    <inkscape:path-effect
       effect="spiro"
       id="path-effect3025"
       is_visible="true" />
    <inkscape:path-effect
       effect="spiro"
       id="path-effect3021"
       is_visible="true" />
    <inkscape:path-effect
       effect="spiro"
       id="path-effect3017"
       is_visible="true" />
    <inkscape:path-effect
       effect="spiro"
       id="path-effect3013"
       is_visible="true" />
    <inkscape:path-effect
       effect="spiro"
       id="path-effect3005"
       is_visible="true" />
  </defs>
  <sodipodi:namedview
     pagecolor="#ffffff"
     bordercolor="#666666"
     borderopacity="1"
     objecttolerance="10"
     gridtolerance="10"
     guidetolerance="10"
     inkscape:pageopacity="0"
     inkscape:pageshadow="2"
     inkscape:window-width="1920"
     inkscape:window-height="1033"
     id="namedview4"
     showgrid="false"
     inkscape:zoom="0.36875"
     inkscape:cx="298.56834"
     inkscape:cy="771.20493"
     inkscape:window-x="-4"
     inkscape:window-y="-4"
     inkscape:window-maximized="1"
     inkscape:current-layer="svg2" />
  <g
     id="g2995"
     transform="translate(-450.22459,2.15331)">
    <path
       style="fill:#b5b5b5"
       d="m 477.25556,624.13247 c -7.23489,-3.42271 -12.60675,-9.28417 -15.43399,-16.84064 -1.99298,-5.3267 -2.008,-7.44628 -2.008,-283.29183 0,-275.84555 0.015,-277.965129 2.008,-283.291834 2.90552,-7.765707 7.80124,-12.854518 18.52042,-19.25088 C 497.99984,10.920476 477.63083,12 658.78678,12 c 155.96113,0 159.05125,0.03725 164.23928,1.979697 7.02789,2.631312 11.71982,6.662871 15.32113,13.16475 l 2.96638,5.355553 0,280.5 0,280.5 -2.64564,5 c -4.08589,7.72195 -19.6105,21.61638 -29.07656,26.02336 l -5.2778,2.4571 -160.5,0.009 -160.5,0.009 -6.05801,-2.86595 z"
       id="path3001"
       inkscape:connector-curvature="0" />
    <path
       style="fill:#aaaaaa"
       d="m 523.48024,626.33333 c -0.36667,-0.36666 -0.66667,-1.9193 -0.66667,-3.45031 0,-1.58286 -0.73516,-3.19505 -1.70423,-3.73738 -1.44891,-0.81085 -1.52382,-1.3497 -0.5,-3.59674 0.66232,-1.45365 1.26037,-4.08433 1.32899,-5.84595 0.0879,-2.25626 0.35085,-1.65374 0.88973,2.03851 0.98803,6.76978 1.59856,8.25854 3.38674,8.25854 1.99098,0 3.04633,3.75579 1.55894,5.54799 -1.27832,1.54029 -3.18906,1.88979 -4.2935,0.78534 z m 64,0 c -0.36667,-0.36666 -0.66667,-1.9193 -0.66667,-3.45031 0,-1.58286 -0.73516,-3.19505 -1.70423,-3.73738 -1.44892,-0.81085 -1.52382,-1.3497 -0.5,-3.59674 0.66232,-1.45365 1.26037,-4.08433 1.32899,-5.84595 0.0879,-2.25626 0.35085,-1.65374 0.88973,2.03851 0.98803,6.76978 1.59856,8.25854 3.38674,8.25854 1.99098,0 3.04633,3.75579 1.55894,5.54799 -1.27832,1.54029 -3.18906,1.88979 -4.2935,0.78534 z m 64,0 c -0.36667,-0.36666 -0.66667,-1.9193 -0.66667,-3.45031 0,-1.58286 -0.73516,-3.19505 -1.70423,-3.73738 -1.44892,-0.81085 -1.52382,-1.3497 -0.5,-3.59674 0.66232,-1.45365 1.26037,-4.08433 1.32899,-5.84595 0.0879,-2.25626 0.35085,-1.65374 0.88973,2.03851 0.98803,6.76978 1.59856,8.25854 3.38674,8.25854 1.99098,0 3.04633,3.75579 1.55894,5.54799 -1.27832,1.54029 -3.18906,1.88979 -4.2935,0.78534 z m 64,0 c -0.36667,-0.36666 -0.66667,-1.9193 -0.66667,-3.45031 0,-1.58286 -0.73516,-3.19505 -1.70423,-3.73738 -1.44892,-0.81085 -1.52382,-1.3497 -0.5,-3.59674 0.66232,-1.45365 1.26037,-4.08433 1.32899,-5.84595 0.0879,-2.25626 0.35085,-1.65374 0.88973,2.03851 0.98803,6.76978 1.59856,8.25854 3.38674,8.25854 1.99098,0 3.04633,3.75579 1.55894,5.54799 -1.27832,1.54029 -3.18906,1.88979 -4.2935,0.78534 z m 64,0 c -0.36667,-0.36666 -0.66667,-1.9193 -0.66667,-3.45031 0,-1.58286 -0.73516,-3.19505 -1.70423,-3.73738 -1.44892,-0.81085 -1.52382,-1.3497 -0.5,-3.59674 0.66232,-1.45365 1.26037,-4.08433 1.32899,-5.84595 0.0879,-2.25626 0.35085,-1.65374 0.88973,2.03851 0.98803,6.76978 1.59856,8.25854 3.38674,8.25854 1.99098,0 3.04633,3.75579 1.55894,5.54799 -1.27832,1.54029 -3.18906,1.88979 -4.2935,0.78534 z m -297,-2 c -0.36667,-0.36666 -0.66667,-1.71666 -0.66667,-3 0,-2.8715 2.61324,-3.12727 3.49716,-0.34228 0.94132,2.96583 -0.96085,5.21193 -2.83049,3.34228 z m 29.33333,0.10093 c 0,-1.30179 2.14413,-4.43426 3.03518,-4.43426 0.53065,0 0.96482,1.125 0.96482,2.5 0,1.83333 -0.53333,2.5 -2,2.5 -1.1,0 -2,-0.25458 -2,-0.56574 z m 19,-5.43426 c 0,-5.11111 0.26667,-6 1.8,-6 2.96,0 4.2,2.12571 4.2,7.2 0,4.66667 -0.0833,4.8 -3,4.8 -3,0 -3,0 -3,-6 z m 15.25,4.75 c 0.22917,-0.6875 1.01667,-1.25 1.75,-1.25 0.73333,0 1.52083,0.5625 1.75,1.25 0.24786,0.74359 -0.46111,1.25 -1.75,1.25 -1.28889,0 -1.99786,-0.50641 -1.75,-1.25 z m 29.75,0.68426 c 0,-1.30179 2.14413,-4.43426 3.03518,-4.43426 0.53065,0 0.96482,1.125 0.96482,2.5 0,1.83333 -0.53333,2.5 -2,2.5 -1.1,0 -2,-0.25458 -2,-0.56574 z m 19,-5.43426 c 0,-5.11111 0.26667,-6 1.8,-6 2.96,0 4.2,2.12571 4.2,7.2 0,4.66667 -0.0833,4.8 -3,4.8 -3,0 -3,0 -3,-6 z m 15.25,4.75 c 0.22917,-0.6875 1.01667,-1.25 1.75,-1.25 0.73333,0 1.52083,0.5625 1.75,1.25 0.24786,0.74359 -0.46111,1.25 -1.75,1.25 -1.28889,0 -1.99786,-0.50641 -1.75,-1.25 z m 29.75,0.68426 c 0,-1.30179 2.14413,-4.43426 3.03518,-4.43426 0.53065,0 0.96482,1.125 0.96482,2.5 0,1.83333 -0.53333,2.5 -2,2.5 -1.1,0 -2,-0.25458 -2,-0.56574 z m 19,-5.43426 c 0,-5.11111 0.26667,-6 1.8,-6 2.96,0 4.2,2.12571 4.2,7.2 0,4.66667 -0.0833,4.8 -3,4.8 -3,0 -3,0 -3,-6 z m 15.25,4.75 c 0.22917,-0.6875 1.01667,-1.25 1.75,-1.25 0.73333,0 1.52083,0.5625 1.75,1.25 0.24786,0.74359 -0.46111,1.25 -1.75,1.25 -1.28889,0 -1.99786,-0.50641 -1.75,-1.25 z m 29.75,0.68426 c 0,-1.30179 2.14413,-4.43426 3.03518,-4.43426 0.53065,0 0.96482,1.125 0.96482,2.5 0,1.83333 -0.53333,2.5 -2,2.5 -1.1,0 -2,-0.25458 -2,-0.56574 z m 19,-5.43426 c 0,-5.11111 0.26667,-6 1.8,-6 2.96,0 4.2,2.12571 4.2,7.2 0,4.66667 -0.0833,4.8 -3,4.8 -3,0 -3,0 -3,-6 z m 15.25,4.75 c 0.22917,-0.6875 1.01667,-1.25 1.75,-1.25 0.73333,0 1.52083,0.5625 1.75,1.25 0.24786,0.74359 -0.46111,1.25 -1.75,1.25 -1.28889,0 -1.99786,-0.50641 -1.75,-1.25 z m 29.75,0.68426 c 0,-1.30179 2.14413,-4.43426 3.03518,-4.43426 0.53065,0 0.96482,1.125 0.96482,2.5 0,1.83333 -0.53333,2.5 -2,2.5 -1.1,0 -2,-0.25458 -2,-0.56574 z m 19,-5.43426 c 0,-5.11111 0.26667,-6 1.8,-6 2.96,0 4.2,2.12571 4.2,7.2 0,4.66667 -0.0833,4.8 -3,4.8 -3,0 -3,0 -3,-6 z m 15.54271,5.0691 c -0.73955,-1.1966 1.14162,-2.38223 2.4736,-1.55902 1.11836,0.69118 0.38417,2.48992 -1.01631,2.48992 -0.48508,0 -1.14086,-0.41891 -1.45729,-0.9309 z m -261.54271,-3.80238 c -0.825,-0.31163 -1.83061,-1.06163 -2.23469,-1.66666 -0.40408,-0.60503 -0.74157,-137.12668 -0.75,-303.38144 -0.0139,-274.384671 0.13028,-302.337257 1.56223,-302.886749 4.62108,-1.773273 4.39442,-17.3680351 4.43549,305.182469 0.0212,166.63265 -0.31053,303.04733 -0.73722,303.14372 -0.4267,0.0964 -1.45081,-0.0797 -2.27581,-0.39134 z m 64,0 c -0.825,-0.31163 -1.83061,-1.06163 -2.23469,-1.66666 -0.40408,-0.60503 -0.74158,-137.12668 -0.75,-303.38144 -0.0139,-274.384671 0.13028,-302.337257 1.56223,-302.886749 4.62108,-1.773273 4.39442,-17.3680351 4.43549,305.182469 0.0212,166.63265 -0.31053,303.04733 -0.73722,303.14372 -0.4267,0.0964 -1.45081,-0.0797 -2.27581,-0.39134 z m 64,0 c -0.825,-0.31163 -1.83061,-1.06163 -2.23469,-1.66666 -0.40408,-0.60503 -0.74158,-137.12668 -0.75,-303.38144 -0.0139,-274.384671 0.13028,-302.337257 1.56223,-302.886749 4.62108,-1.773273 4.39442,-17.3680351 4.43549,305.182469 0.0212,166.63265 -0.31053,303.04733 -0.73722,303.14372 -0.4267,0.0964 -1.45081,-0.0797 -2.27581,-0.39134 z m 64,0 c -0.825,-0.31163 -1.83061,-1.06163 -2.23469,-1.66666 -0.40408,-0.60503 -0.74158,-137.12668 -0.75,-303.38144 -0.0139,-274.384671 0.13028,-302.337257 1.56223,-302.886749 4.62108,-1.773273 4.39442,-17.3680351 4.43549,305.182469 0.0212,166.63265 -0.31053,303.04733 -0.73722,303.14372 -0.4267,0.0964 -1.45081,-0.0797 -2.27581,-0.39134 z m 64,0 c -0.825,-0.31163 -1.83061,-1.06163 -2.23469,-1.66666 -0.40408,-0.60503 -0.74158,-137.12668 -0.75,-303.38144 -0.0139,-274.384671 0.13028,-302.337257 1.56223,-302.886749 4.62108,-1.773273 4.39442,-17.3680351 4.43549,305.182469 0.0212,166.63265 -0.31053,303.04733 -0.73722,303.14372 -0.4267,0.0964 -1.45081,-0.0797 -2.27581,-0.39134 z m -306.3125,-0.91255 c -1.10253,-1.10253 -0.79186,-6.17164 0.4243,-6.92327 1.51123,-0.93398 2.96384,1.53089 2.64725,4.49198 -0.26263,2.45635 -1.81651,3.68632 -3.07155,2.43129 z m 63.64833,-0.92139 c -0.83346,-2.17196 1.28244,-4.21451 2.79695,-2.7 1.28004,1.28004 0.48705,4.26722 -1.13278,4.26722 -0.58452,0 -1.3334,-0.70525 -1.66417,-1.56722 z m 64,0 c -0.83346,-2.17196 1.28244,-4.21451 2.79695,-2.7 1.28004,1.28004 0.48705,4.26722 -1.13278,4.26722 -0.58452,0 -1.3334,-0.70525 -1.66417,-1.56722 z m 64,0 c -0.83346,-2.17196 1.28244,-4.21451 2.79695,-2.7 1.28004,1.28004 0.48705,4.26722 -1.13278,4.26722 -0.58452,0 -1.3334,-0.70525 -1.66417,-1.56722 z m 64,0 c -0.83346,-2.17196 1.28244,-4.21451 2.79695,-2.7 1.28004,1.28004 0.48705,4.26722 -1.13278,4.26722 -0.58452,0 -1.3334,-0.70525 -1.66417,-1.56722 z m 64,0 c -0.83346,-2.17196 1.28244,-4.21451 2.79695,-2.7 1.28004,1.28004 0.48705,4.26722 -1.13278,4.26722 -0.58452,0 -1.3334,-0.70525 -1.66417,-1.56722 z m -340.89865,-1.88831 c -1.15542,-1.76339 -1.73064,-5.6391 -2.04073,-13.75 C 466.97253,596.58251 466.73733,467.3 466.68735,315.5 c -0.0659,-200.20738 0.21551,-277.135108 1.02485,-280.133512 1.04531,-3.872645 3.562,-7.23919 4.62046,-6.180731 0.34273,0.34273 0.65525,375.606583 0.486,583.564243 -0.005,6.6837 -0.98926,7.72999 -3.56791,3.79447 z m 45.64177,1.03886 c -0.0434,-1.05416 0.19293,-1.64479 0.52522,-1.3125 0.33229,0.33229 0.36782,1.1948 0.0789,1.91667 -0.31923,0.79773 -0.55619,0.56078 -0.60417,-0.60417 z m 64,0 c -0.0434,-1.05416 0.19292,-1.64479 0.52522,-1.3125 0.33229,0.33229 0.36781,1.1948 0.0789,1.91667 -0.31922,0.79773 -0.55618,0.56078 -0.60416,-0.60417 z m 64,0 c -0.0434,-1.05416 0.19292,-1.64479 0.52522,-1.3125 0.33229,0.33229 0.36781,1.1948 0.0789,1.91667 -0.31922,0.79773 -0.55618,0.56078 -0.60416,-0.60417 z m 64,0 c -0.0434,-1.05416 0.19293,-1.64479 0.52522,-1.3125 0.33229,0.33229 0.36781,1.1948 0.0789,1.91667 -0.31922,0.79773 -0.55618,0.56078 -0.60416,-0.60417 z m 64,0 c -0.0434,-1.05416 0.19293,-1.64479 0.52522,-1.3125 0.33229,0.33229 0.36781,1.1948 0.0789,1.91667 -0.31922,0.79773 -0.55618,0.56078 -0.60416,-0.60417 z M 476.65821,612.0113 c -1.19559,-1.31596 -1.68889,-3.86199 -1.77608,-9.16666 C 474.81574,598.80509 474.52388,469.95 474.23356,316.5 473.83261,104.57927 473.9887,36.182505 474.88278,32.020198 c 1.00172,-4.663415 2.97731,-7.864091 4.93079,-7.988412 0.275,-0.0175 0.38443,129.139754 0.24318,287.016134 -0.22601,252.60513 -0.0782,287.37217 1.23153,289.75001 1.34364,2.43934 1.44375,0.51435 1.02953,-19.79793 -0.25236,-12.375 -0.45071,-25.3125 -0.44077,-28.75 0.01,-3.4375 0.0181,-15.925 0.0181,-27.75 0,-11.825 0,-24.425 0,-28 0,-3.575 0,-16.175 0,-28 0,-11.825 0,-24.425 0,-28 0,-3.575 0,-16.175 0,-28 0,-11.825 0,-24.425 0,-28 0,-3.575 0,-16.175 0,-28 0,-11.825 0,-24.425 0,-28 0,-3.575 0,-16.175 0,-28 0,-11.825 0,-24.425 0,-28 0,-3.575 0,-16.175 0,-28 0,-11.825 0,-24.425 0,-28 0,-3.575 0,-16.175 0,-28 0,-11.825 0,-24.425 0,-28 0,-3.575 0,-16.175 0,-28 0,-11.825 0,-24.425 0,-28 0,-3.575 0,-16.175 0,-28 0,-11.825 -0.0263,-24.3125 -0.0585,-27.75 -0.13487,-14.414751 1.03165,-26.214741 2.71856,-27.5 0.90235,-0.6875 2.00463,-1.25 2.44951,-1.25 0.44488,0 0.80887,132.075 0.80887,293.5 0,308.87133 0.16241,297.0154 -4,292 -2.16982,-2.61447 -3,-1.64593 -3,3.5 0,5.38788 -1.20368,6.26016 -4.15536,3.0113 z m 70.30908,0.91836 c -2.18461,-0.87192 -2.29777,-1.29797 -1.64217,-6.18305 0.38726,-2.88564 0.67393,-14.80911 0.63705,-26.49661 -0.0369,-11.6875 -0.0671,-24.175 -0.0671,-27.75 0,-3.575 0,-16.175 0,-28 0,-11.825 0,-24.425 0,-28 0,-3.575 0,-16.175 0,-28 0,-11.825 0,-24.425 0,-28 0,-3.575 0,-16.175 0,-28 0,-11.825 0,-24.425 0,-28 0,-3.575 0,-16.175 0,-28 0,-11.825 0,-24.425 0,-28 0,-3.575 0,-16.175 0,-28 0,-11.825 0,-24.425 0,-28 0,-3.575 0,-16.175 0,-28 0,-11.825 0,-24.425 0,-28 0,-3.575 0,-16.175 0,-28 0,-11.825 0,-24.425 0,-28 0,-3.575 0,-16.175 0,-28 0,-11.825 0,-24.425 0,-28 0,-3.575 0,-16.175 0,-28 0,-11.825 -0.0166,-24.3125 -0.0369,-27.75 -0.0203,-3.4375 0.2101,-12.6625 0.51196,-20.5 l 0.54883,-14.25 2.44894,0 2.44893,0 -0.25164,299.66667 c -0.16688,198.72084 -0.58851,299.75641 -1.25165,299.93305 -0.55,0.14651 -2.05583,-0.15502 -3.34628,-0.67006 z m 14.69711,-0.15414 C 561.45389,612.07399 561.32841,477.175 561.38555,313 561.4821,35.576679 561.60679,14.477171 563.1515,14.176676 c 1.45562,-0.283163 1.66207,0.858476 1.66207,9.190983 0,5.81774 0.42568,9.77739 1.09562,10.191436 0.68772,0.425034 0.83691,2.029279 0.40074,4.309017 -1.29089,6.747053 -1.59513,49.454036 -0.3691,51.809743 0.68127,1.308975 0.82537,3.30378 0.3612,5 -1.32908,4.856891 -1.6385,48.545795 -0.3612,50.999995 0.68127,1.30898 0.82537,3.30379 0.3612,5 -1.32908,4.8569 -1.6385,48.5458 -0.3612,51 0.68127,1.30898 0.82537,3.30379 0.3612,5 -1.32908,4.8569 -1.6385,48.5458 -0.3612,51 0.68127,1.30898 0.82537,3.30379 0.3612,5 -1.32908,4.8569 -1.6385,48.5458 -0.3612,51 0.68127,1.30898 0.82537,3.30379 0.3612,5 -1.32908,4.8569 -1.6385,48.5458 -0.3612,51 0.68127,1.30898 0.82537,3.30379 0.3612,5 -1.32908,4.8569 -1.6385,48.5458 -0.3612,51 0.68127,1.30898 0.82537,3.30379 0.3612,5 -1.32908,4.8569 -1.6385,48.5458 -0.3612,51 0.68127,1.30898 0.82537,3.30379 0.3612,5 -1.32908,4.8569 -1.6385,48.5458 -0.3612,51 0.68127,1.30898 0.82537,3.30379 0.3612,5 -1.32908,4.8569 -1.6385,48.5458 -0.3612,51 0.65978,1.26769 0.82752,3.35729 0.40138,5 -0.40265,1.55218 -0.95171,5.16308 -1.22014,8.02421 -0.47469,5.05978 -2.62728,8.84084 -3.45767,6.07346 z m 49.30289,0.15414 c -2.18461,-0.87192 -2.29777,-1.29797 -1.64217,-6.18305 0.38726,-2.88564 0.67393,-14.80911 0.63704,-26.49661 -0.0369,-11.6875 -0.0671,-24.175 -0.0671,-27.75 0,-3.575 0,-16.175 0,-28 0,-11.825 0,-24.425 0,-28 0,-3.575 0,-16.175 0,-28 0,-11.825 0,-24.425 0,-28 0,-3.575 0,-16.175 0,-28 0,-11.825 0,-24.425 0,-28 0,-3.575 0,-16.175 0,-28 0,-11.825 0,-24.425 0,-28 0,-3.575 0,-16.175 0,-28 0,-11.825 0,-24.425 0,-28 0,-3.575 0,-16.175 0,-28 0,-11.825 0,-24.425 0,-28 0,-3.575 0,-16.175 0,-28 0,-11.825 0,-24.425 0,-28 0,-3.575 0,-16.175 0,-28 0,-11.825 0,-24.425 0,-28 0,-3.575 0,-16.175 0,-28 0,-11.825 -0.0166,-24.3125 -0.0369,-27.75 -0.0203,-3.4375 0.21009,-12.6625 0.51195,-20.5 l 0.54883,-14.25 2.44894,0 2.44893,0 -0.25164,299.66667 c -0.16688,198.72084 -0.58851,299.75641 -1.25165,299.93305 -0.55,0.14651 -2.05583,-0.15502 -3.34628,-0.67006 z m 14.69711,-0.15414 C 625.45389,612.07399 625.32841,477.175 625.38555,313 625.4821,35.576679 625.60679,14.477171 627.1515,14.176676 c 1.45562,-0.283163 1.66207,0.858476 1.66207,9.190983 0,5.81774 0.42568,9.77739 1.09562,10.191436 0.68772,0.425034 0.83691,2.029279 0.40074,4.309017 -1.29089,6.747053 -1.59513,49.454036 -0.3691,51.809743 0.68127,1.308975 0.82537,3.30378 0.3612,5 -1.32908,4.856891 -1.6385,48.545795 -0.3612,50.999995 0.68127,1.30898 0.82537,3.30379 0.3612,5 -1.32908,4.8569 -1.6385,48.5458 -0.3612,51 0.68127,1.30898 0.82537,3.30379 0.3612,5 -1.32908,4.8569 -1.6385,48.5458 -0.3612,51 0.68127,1.30898 0.82537,3.30379 0.3612,5 -1.32908,4.8569 -1.6385,48.5458 -0.3612,51 0.68127,1.30898 0.82537,3.30379 0.3612,5 -1.32908,4.8569 -1.6385,48.5458 -0.3612,51 0.68127,1.30898 0.82537,3.30379 0.3612,5 -1.32908,4.8569 -1.6385,48.5458 -0.3612,51 0.68127,1.30898 0.82537,3.30379 0.3612,5 -1.32908,4.8569 -1.6385,48.5458 -0.3612,51 0.68127,1.30898 0.82537,3.30379 0.3612,5 -1.32908,4.8569 -1.6385,48.5458 -0.3612,51 0.68127,1.30898 0.82537,3.30379 0.3612,5 -1.32908,4.8569 -1.6385,48.5458 -0.3612,51 0.65978,1.26769 0.82752,3.35729 0.40138,5 -0.40265,1.55218 -0.95171,5.16308 -1.22014,8.02421 -0.47469,5.05978 -2.62728,8.84084 -3.45767,6.07346 z m 49.30289,0.15414 c -2.18461,-0.87192 -2.29777,-1.29797 -1.64217,-6.18305 0.38726,-2.88564 0.67393,-14.80911 0.63704,-26.49661 -0.0369,-11.6875 -0.0671,-24.175 -0.0671,-27.75 0,-3.575 0,-16.175 0,-28 0,-11.825 0,-24.425 0,-28 0,-3.575 0,-16.175 0,-28 0,-11.825 0,-24.425 0,-28 0,-3.575 0,-16.175 0,-28 0,-11.825 0,-24.425 0,-28 0,-3.575 0,-16.175 0,-28 0,-11.825 0,-24.425 0,-28 0,-3.575 0,-16.175 0,-28 0,-11.825 0,-24.425 0,-28 0,-3.575 0,-16.175 0,-28 0,-11.825 0,-24.425 0,-28 0,-3.575 0,-16.175 0,-28 0,-11.825 0,-24.425 0,-28 0,-3.575 0,-16.175 0,-28 0,-11.825 0,-24.425 0,-28 0,-3.575 0,-16.175 0,-28 0,-11.825 -0.0166,-24.3125 -0.0369,-27.75 -0.0203,-3.4375 0.21009,-12.6625 0.51195,-20.5 l 0.54883,-14.25 2.44894,0 2.44893,0 -0.25164,299.66667 c -0.16688,198.72084 -0.58851,299.75641 -1.25165,299.93305 -0.55,0.14651 -2.05583,-0.15502 -3.34628,-0.67006 z m 14.69711,-0.15414 C 689.45389,612.07399 689.32841,477.175 689.38555,313 689.4821,35.576679 689.60679,14.477171 691.1515,14.176676 c 1.45562,-0.283163 1.66207,0.858476 1.66207,9.190983 0,5.81774 0.42568,9.77739 1.09562,10.191436 0.68772,0.425034 0.83691,2.029279 0.40074,4.309017 -1.29089,6.747053 -1.59513,49.454036 -0.3691,51.809743 0.68127,1.308975 0.82537,3.30378 0.3612,5 -1.32908,4.856891 -1.6385,48.545795 -0.3612,50.999995 0.68127,1.30898 0.82537,3.30379 0.3612,5 -1.32908,4.8569 -1.6385,48.5458 -0.3612,51 0.68127,1.30898 0.82537,3.30379 0.3612,5 -1.32908,4.8569 -1.6385,48.5458 -0.3612,51 0.68127,1.30898 0.82537,3.30379 0.3612,5 -1.32908,4.8569 -1.6385,48.5458 -0.3612,51 0.68127,1.30898 0.82537,3.30379 0.3612,5 -1.32908,4.8569 -1.6385,48.5458 -0.3612,51 0.68127,1.30898 0.82537,3.30379 0.3612,5 -1.32908,4.8569 -1.6385,48.5458 -0.3612,51 0.68127,1.30898 0.82537,3.30379 0.3612,5 -1.32908,4.8569 -1.6385,48.5458 -0.3612,51 0.68127,1.30898 0.82537,3.30379 0.3612,5 -1.32908,4.8569 -1.6385,48.5458 -0.3612,51 0.68127,1.30898 0.82537,3.30379 0.3612,5 -1.32908,4.8569 -1.6385,48.5458 -0.3612,51 0.65978,1.26769 0.82752,3.35729 0.40138,5 -0.40265,1.55218 -0.95171,5.16308 -1.22014,8.02421 -0.47469,5.05978 -2.62728,8.84084 -3.45767,6.07346 z m 49.30289,0.15414 c -2.18461,-0.87192 -2.29777,-1.29797 -1.64217,-6.18305 0.38726,-2.88564 0.67393,-14.80911 0.63704,-26.49661 -0.0369,-11.6875 -0.0671,-24.175 -0.0671,-27.75 0,-3.575 0,-16.175 0,-28 0,-11.825 0,-24.425 0,-28 0,-3.575 0,-16.175 0,-28 0,-11.825 0,-24.425 0,-28 0,-3.575 0,-16.175 0,-28 0,-11.825 0,-24.425 0,-28 0,-3.575 0,-16.175 0,-28 0,-11.825 0,-24.425 0,-28 0,-3.575 0,-16.175 0,-28 0,-11.825 0,-24.425 0,-28 0,-3.575 0,-16.175 0,-28 0,-11.825 0,-24.425 0,-28 0,-3.575 0,-16.175 0,-28 0,-11.825 0,-24.425 0,-28 0,-3.575 0,-16.175 0,-28 0,-11.825 0,-24.425 0,-28 0,-3.575 0,-16.175 0,-28 0,-11.825 -0.0166,-24.3125 -0.0369,-27.75 -0.0203,-3.4375 0.21009,-12.6625 0.51195,-20.5 l 0.54883,-14.25 2.44894,0 2.44893,0 -0.25164,299.66667 c -0.16688,198.72084 -0.58851,299.75641 -1.25165,299.93305 -0.55,0.14651 -2.05583,-0.15502 -3.34628,-0.67006 z m 14.69711,-0.15414 C 753.45389,612.07399 753.32841,477.175 753.38555,313 753.4821,35.576679 753.60679,14.477171 755.1515,14.176676 c 1.45562,-0.283163 1.66207,0.858476 1.66207,9.190983 0,5.81774 0.42568,9.77739 1.09562,10.191436 0.68772,0.425034 0.83691,2.029279 0.40074,4.309017 -1.29089,6.747053 -1.59513,49.454036 -0.3691,51.809743 0.68127,1.308975 0.82537,3.30378 0.3612,5 -1.32908,4.856891 -1.6385,48.545795 -0.3612,50.999995 0.68127,1.30898 0.82537,3.30379 0.3612,5 -1.32908,4.8569 -1.6385,48.5458 -0.3612,51 0.68127,1.30898 0.82537,3.30379 0.3612,5 -1.32908,4.8569 -1.6385,48.5458 -0.3612,51 0.68127,1.30898 0.82537,3.30379 0.3612,5 -1.32908,4.8569 -1.6385,48.5458 -0.3612,51 0.68127,1.30898 0.82537,3.30379 0.3612,5 -1.32908,4.8569 -1.6385,48.5458 -0.3612,51 0.68127,1.30898 0.82537,3.30379 0.3612,5 -1.32908,4.8569 -1.6385,48.5458 -0.3612,51 0.68127,1.30898 0.82537,3.30379 0.3612,5 -1.32908,4.8569 -1.6385,48.5458 -0.3612,51 0.68127,1.30898 0.82537,3.30379 0.3612,5 -1.32908,4.8569 -1.6385,48.5458 -0.3612,51 0.68127,1.30898 0.82537,3.30379 0.3612,5 -1.32908,4.8569 -1.6385,48.5458 -0.3612,51 0.65978,1.26769 0.82752,3.35729 0.40138,5 -0.40265,1.55218 -0.95171,5.16308 -1.22014,8.02421 -0.47469,5.05978 -2.62728,8.84084 -3.45767,6.07346 z m 49.30289,0.15414 c -2.18461,-0.87192 -2.29777,-1.29797 -1.64217,-6.18305 0.38726,-2.88564 0.67393,-14.80911 0.63704,-26.49661 -0.0369,-11.6875 -0.0671,-24.175 -0.0671,-27.75 0,-3.575 0,-16.175 0,-28 0,-11.825 0,-24.425 0,-28 0,-3.575 0,-16.175 0,-28 0,-11.825 0,-24.425 0,-28 0,-3.575 0,-16.175 0,-28 0,-11.825 0,-24.425 0,-28 0,-3.575 0,-16.175 0,-28 0,-11.825 0,-24.425 0,-28 0,-3.575 0,-16.175 0,-28 0,-11.825 0,-24.425 0,-28 0,-3.575 0,-16.175 0,-28 0,-11.825 0,-24.425 0,-28 0,-3.575 0,-16.175 0,-28 0,-11.825 0,-24.425 0,-28 0,-3.575 0,-16.175 0,-28 0,-11.825 0,-24.425 0,-28 0,-3.575 0,-16.175 0,-28 0,-11.825 -0.0166,-24.3125 -0.0369,-27.75 -0.0203,-3.4375 0.21009,-12.6625 0.51195,-20.5 l 0.54883,-14.25 2.44894,0 2.44893,0 -0.25164,299.66667 c -0.16688,198.72084 -0.58851,299.75641 -1.25165,299.93305 -0.55,0.14651 -2.05583,-0.15502 -3.34628,-0.67006 z M 497.72688,612.25 c -0.0477,-0.4125 -0.16018,-134.9625 -0.25,-299 -0.1552,-283.443157 -0.0764,-298.249993 1.58669,-298.249997 1.53618,-3e-6 1.75,1.092423 1.75,8.94098 0,5.402167 0.43364,9.208989 1.09562,9.618112 0.68772,0.425034 0.83691,2.029279 0.40074,4.309017 -1.29089,6.747053 -1.59513,49.454036 -0.3691,51.809743 0.68126,1.308975 0.82537,3.30378 0.3612,5 -1.32908,4.856891 -1.6385,48.545795 -0.3612,50.999995 0.68126,1.30898 0.82537,3.30379 0.3612,5 -1.32908,4.8569 -1.6385,48.5458 -0.3612,51 0.68126,1.30898 0.82537,3.30379 0.3612,5 -1.32908,4.8569 -1.6385,48.5458 -0.3612,51 0.68126,1.30898 0.82537,3.30379 0.3612,5 -1.32908,4.8569 -1.6385,48.5458 -0.3612,51 0.68126,1.30898 0.82537,3.30379 0.3612,5 -1.32908,4.8569 -1.6385,48.5458 -0.3612,51 0.68126,1.30898 0.82537,3.30379 0.3612,5 -1.32908,4.8569 -1.6385,48.5458 -0.3612,51 0.68126,1.30898 0.82537,3.30379 0.3612,5 -1.32908,4.8569 -1.6385,48.5458 -0.3612,51 0.68126,1.30898 0.82537,3.30379 0.3612,5 -1.32908,4.8569 -1.6385,48.5458 -0.3612,51 0.68126,1.30898 0.82537,3.30379 0.3612,5 -1.32908,4.8569 -1.6385,48.5458 -0.3612,51 0.643,1.23546 0.82983,3.39905 0.43176,5 -0.38594,1.55218 -0.9165,4.39715 -1.17902,6.32215 -0.83827,6.14687 -1.39399,8 -2.39905,8 -0.53952,0 -1.01996,-0.3375 -1.06764,-0.75 z m 30.42404,-0.066 C 527.39862,611.70181 527.08457,523.35881 527.0865,312.75 527.0895,22.038275 527.1393,14 528.9514,14 c 1.81207,0 1.86217,8.04201 1.86217,298.94098 0,164.41754 -0.35899,299.16285 -0.79775,299.43402 -0.43876,0.27117 -1.27796,0.18523 -1.8649,-0.19098 z m 64,0 C 591.39862,611.70181 591.08457,523.35881 591.0865,312.75 591.0895,22.038275 591.1393,14 592.9514,14 c 1.81207,0 1.86217,8.04201 1.86217,298.94098 0,164.41754 -0.35899,299.16285 -0.79775,299.43402 -0.43876,0.27117 -1.27796,0.18523 -1.8649,-0.19098 z m 64,0 C 655.39862,611.70181 655.08457,523.35881 655.0865,312.75 655.0895,22.038275 655.1393,14 656.9514,14 c 1.81207,0 1.86217,8.04201 1.86217,298.94098 0,164.41754 -0.35899,299.16285 -0.79775,299.43402 -0.43876,0.27117 -1.27796,0.18523 -1.8649,-0.19098 z m 64,0 C 719.39862,611.70181 719.08457,523.35881 719.0865,312.75 719.0895,22.038275 719.1393,14 720.9514,14 c 1.81207,0 1.86217,8.04201 1.86217,298.94098 0,164.41754 -0.35899,299.16285 -0.79775,299.43402 -0.43876,0.27117 -1.27796,0.18523 -1.8649,-0.19098 z m 64,0 C 783.39862,611.70181 783.08457,523.35881 783.0865,312.75 783.0895,22.038275 783.1393,14 784.9514,14 c 1.81207,0 1.86217,8.04201 1.86217,298.94098 0,164.41754 -0.35899,299.16285 -0.79775,299.43402 -0.43876,0.27117 -1.27796,0.18523 -1.8649,-0.19098 z m 33.57596,0.066 c -0.0477,-0.4125 -0.16018,-134.9625 -0.25,-299 -0.1552,-283.443157 -0.0764,-298.249993 1.58669,-298.249997 1.53618,-3e-6 1.75,1.092423 1.75,8.94098 0,5.402167 0.43364,9.208989 1.09562,9.618112 0.68772,0.425034 0.83691,2.029279 0.40074,4.309017 -1.29089,6.747053 -1.59513,49.454036 -0.3691,51.809743 0.68127,1.308975 0.82537,3.30378 0.3612,5 -1.32908,4.856891 -1.6385,48.545795 -0.3612,50.999995 0.68127,1.30898 0.82537,3.30379 0.3612,5 -1.32908,4.8569 -1.6385,48.5458 -0.3612,51 0.68127,1.30898 0.82537,3.30379 0.3612,5 -1.32908,4.8569 -1.6385,48.5458 -0.3612,51 0.68127,1.30898 0.82537,3.30379 0.3612,5 -1.32908,4.8569 -1.6385,48.5458 -0.3612,51 0.68127,1.30898 0.82537,3.30379 0.3612,5 -1.32908,4.8569 -1.6385,48.5458 -0.3612,51 0.68127,1.30898 0.82537,3.30379 0.3612,5 -1.32908,4.8569 -1.6385,48.5458 -0.3612,51 0.68127,1.30898 0.82537,3.30379 0.3612,5 -1.32908,4.8569 -1.6385,48.5458 -0.3612,51 0.68127,1.30898 0.82537,3.30379 0.3612,5 -1.32908,4.8569 -1.6385,48.5458 -0.3612,51 0.68127,1.30898 0.82537,3.30379 0.3612,5 -1.32908,4.8569 -1.6385,48.5458 -0.3612,51 0.643,1.23546 0.82983,3.39905 0.43176,5 -0.38594,1.55218 -0.9165,4.39715 -1.17902,6.32215 -0.83827,6.14687 -1.39399,8 -2.39905,8 -0.53952,0 -1.01996,-0.3375 -1.06764,-0.75 z m -355.35661,-6.47251 c -1.39993,-1.99868 -1.5567,-30.38747 -1.5567,-281.88921 0,-276.622855 0.0214,-279.692407 1.96673,-282.027496 1.95658,-2.3486 1.9669,-0.893803 2,281.889216 0.0183,156.3375 -0.16621,284.25 -0.41003,284.25 -0.24381,0 -1.14381,-1.00013 -2,-2.22251 z m 58.05029,-1.35928 c -0.95232,-2.48169 -0.68065,-11.75684 0.39301,-13.41821 0.66926,-1.03561 0.97411,1.05413 0.98469,6.75 0.0154,8.28879 -0.25453,9.59516 -1.3777,6.66821 z m 64,0 c -0.95232,-2.48169 -0.68065,-11.75684 0.39301,-13.41821 0.66926,-1.03561 0.97412,1.05413 0.98469,6.75 0.0154,8.28879 -0.25452,9.59516 -1.3777,6.66821 z m 64,0 c -0.95232,-2.48169 -0.68065,-11.75684 0.39301,-13.41821 0.66926,-1.03561 0.97412,1.05413 0.98469,6.75 0.0154,8.28879 -0.25452,9.59516 -1.3777,6.66821 z m 64,0 c -0.95232,-2.48169 -0.68065,-11.75684 0.39301,-13.41821 0.66926,-1.03561 0.97412,1.05413 0.98469,6.75 0.0154,8.28879 -0.25452,9.59516 -1.3777,6.66821 z m 64,0 c -0.95232,-2.48169 -0.68065,-11.75684 0.39301,-13.41821 0.66926,-1.03561 0.97412,1.05413 0.98469,6.75 0.0154,8.28879 -0.25452,9.59516 -1.3777,6.66821 z m -267.83501,-5.27735 c -1.78879,-2.12586 -2.69163,-4.71406 -3.19433,-9.15727 -0.38541,-3.4066 -0.44805,-6.44652 -0.1392,-6.75537 0.30885,-0.30886 0.56155,0.41345 0.56155,1.60511 0,3.44856 1.39136,2.53153 3.52588,-2.32386 2.42927,-5.52585 3.94081,-5.82947 3.10849,-0.62439 -0.527,3.29563 -0.32709,3.96201 1.31755,4.3921 1.72834,0.45197 1.91053,1.30577 1.67835,7.86491 -0.23199,6.55381 -0.48471,7.39093 -2.31258,7.66006 -1.2936,0.19047 -2.97385,-0.79324 -4.54571,-2.66129 z m 64,0 c -1.78879,-2.12586 -2.69164,-4.71406 -3.19433,-9.15727 -0.38541,-3.4066 -0.44805,-6.44652 -0.1392,-6.75537 0.30885,-0.30886 0.56155,0.41345 0.56155,1.60511 0,3.44856 1.39136,2.53153 3.52588,-2.32386 2.42927,-5.52585 3.94081,-5.82947 3.10849,-0.62439 -0.527,3.29563 -0.32709,3.96201 1.31755,4.3921 1.72834,0.45197 1.91053,1.30577 1.67835,7.86491 -0.23199,6.55381 -0.48472,7.39093 -2.31258,7.66006 -1.2936,0.19047 -2.97385,-0.79324 -4.54571,-2.66129 z m 64,0 c -1.78879,-2.12586 -2.69164,-4.71406 -3.19433,-9.15727 -0.38541,-3.4066 -0.44805,-6.44652 -0.1392,-6.75537 0.30885,-0.30886 0.56155,0.41345 0.56155,1.60511 0,3.44856 1.39136,2.53153 3.52588,-2.32386 2.42927,-5.52585 3.94081,-5.82947 3.10849,-0.62439 -0.527,3.29563 -0.32709,3.96201 1.31755,4.3921 1.72834,0.45197 1.91053,1.30577 1.67835,7.86491 -0.23199,6.55381 -0.48472,7.39093 -2.31258,7.66006 -1.2936,0.19047 -2.97385,-0.79324 -4.54571,-2.66129 z m 64,0 c -1.78879,-2.12586 -2.69164,-4.71406 -3.19433,-9.15727 -0.38541,-3.4066 -0.44805,-6.44652 -0.1392,-6.75537 0.30885,-0.30886 0.56155,0.41345 0.56155,1.60511 0,3.44856 1.39136,2.53153 3.52588,-2.32386 2.42927,-5.52585 3.94081,-5.82947 3.10849,-0.62439 -0.527,3.29563 -0.32709,3.96201 1.31755,4.3921 1.72834,0.45197 1.91053,1.30577 1.67835,7.86491 -0.23199,6.55381 -0.48472,7.39093 -2.31258,7.66006 -1.2936,0.19047 -2.97385,-0.79324 -4.54571,-2.66129 z m 64,0 c -1.78879,-2.12586 -2.69164,-4.71406 -3.19433,-9.15727 -0.38541,-3.4066 -0.44805,-6.44652 -0.1392,-6.75537 0.30885,-0.30886 0.56155,0.41345 0.56155,1.60511 0,3.44856 1.39136,2.53153 3.52588,-2.32386 2.42927,-5.52585 3.94081,-5.82947 3.10849,-0.62439 -0.527,3.29563 -0.32709,3.96201 1.31755,4.3921 1.72834,0.45197 1.91053,1.30577 1.67835,7.86491 -0.23199,6.55381 -0.48472,7.39093 -2.31258,7.66006 -1.2936,0.19047 -2.97385,-0.79324 -4.54571,-2.66129 z m 63.95612,-0.0521 c -1.74223,-2.07052 -2.65207,-4.70006 -3.15045,-9.10512 -0.38541,-3.4066 -0.44805,-6.44652 -0.1392,-6.75537 0.30885,-0.30886 0.56155,0.41345 0.56155,1.60511 0,3.44856 1.39136,2.53153 3.52588,-2.32386 2.42927,-5.52585 3.94081,-5.82947 3.10849,-0.62439 -0.53389,3.33872 -0.33724,3.95936 1.39834,4.41322 1.83337,0.47944 1.97558,1.13706 1.54218,7.13156 -0.26259,3.63189 -0.75092,7.04594 -1.08518,7.58678 -1.09149,1.76608 -3.2654,1.03865 -5.76161,-1.92793 z M 522.18353,561 c 0,-5.775 0.16528,-8.1375 0.36728,-5.25 0.202,2.8875 0.202,7.6125 0,10.5 -0.202,2.8875 -0.36728,0.525 -0.36728,-5.25 z m 64,0 c 0,-5.775 0.16528,-8.1375 0.36728,-5.25 0.202,2.8875 0.202,7.6125 0,10.5 -0.202,2.8875 -0.36728,0.525 -0.36728,-5.25 z m 64,0 c 0,-5.775 0.16528,-8.1375 0.36728,-5.25 0.202,2.8875 0.202,7.6125 0,10.5 -0.202,2.8875 -0.36728,0.525 -0.36728,-5.25 z m 64,0 c 0,-5.775 0.16528,-8.1375 0.36728,-5.25 0.202,2.8875 0.202,7.6125 0,10.5 -0.202,2.8875 -0.36728,0.525 -0.36728,-5.25 z m 64,0 c 0,-5.775 0.16528,-8.1375 0.36728,-5.25 0.202,2.8875 0.202,7.6125 0,10.5 -0.202,2.8875 -0.36728,0.525 -0.36728,-5.25 z M 520.42056,548.41821 c -0.95232,-2.48169 -0.68065,-11.75684 0.39301,-13.41821 0.66926,-1.03561 0.97411,1.05413 0.98469,6.75 0.0154,8.28879 -0.25453,9.59516 -1.3777,6.66821 z m 64,0 c -0.95232,-2.48169 -0.68065,-11.75684 0.39301,-13.41821 0.66926,-1.03561 0.97412,1.05413 0.98469,6.75 0.0154,8.28879 -0.25452,9.59516 -1.3777,6.66821 z m 64,0 c -0.95232,-2.48169 -0.68065,-11.75684 0.39301,-13.41821 0.66926,-1.03561 0.97412,1.05413 0.98469,6.75 0.0154,8.28879 -0.25452,9.59516 -1.3777,6.66821 z m 64,0 c -0.95232,-2.48169 -0.68065,-11.75684 0.39301,-13.41821 0.66926,-1.03561 0.97412,1.05413 0.98469,6.75 0.0154,8.28879 -0.25452,9.59516 -1.3777,6.66821 z m 64,0 c -0.95232,-2.48169 -0.68065,-11.75684 0.39301,-13.41821 0.66926,-1.03561 0.97412,1.05413 0.98469,6.75 0.0154,8.28879 -0.25452,9.59516 -1.3777,6.66821 z m -267.83501,-5.27735 c -1.78879,-2.12586 -2.69163,-4.71406 -3.19433,-9.15727 -0.38541,-3.4066 -0.44805,-6.44652 -0.1392,-6.75537 0.30885,-0.30886 0.56155,0.41345 0.56155,1.60511 0,3.44856 1.39136,2.53153 3.52588,-2.32386 2.42927,-5.52585 3.94081,-5.82947 3.10849,-0.62439 -0.527,3.29563 -0.32709,3.96201 1.31755,4.3921 1.72834,0.45197 1.91053,1.30577 1.67835,7.86491 -0.23199,6.55381 -0.48471,7.39093 -2.31258,7.66006 -1.2936,0.19047 -2.97385,-0.79324 -4.54571,-2.66129 z m 64,0 c -1.78879,-2.12586 -2.69164,-4.71406 -3.19433,-9.15727 -0.38541,-3.4066 -0.44805,-6.44652 -0.1392,-6.75537 0.30885,-0.30886 0.56155,0.41345 0.56155,1.60511 0,3.44856 1.39136,2.53153 3.52588,-2.32386 2.42927,-5.52585 3.94081,-5.82947 3.10849,-0.62439 -0.527,3.29563 -0.32709,3.96201 1.31755,4.3921 1.72834,0.45197 1.91053,1.30577 1.67835,7.86491 -0.23199,6.55381 -0.48472,7.39093 -2.31258,7.66006 -1.2936,0.19047 -2.97385,-0.79324 -4.54571,-2.66129 z m 64,0 c -1.78879,-2.12586 -2.69164,-4.71406 -3.19433,-9.15727 -0.38541,-3.4066 -0.44805,-6.44652 -0.1392,-6.75537 0.30885,-0.30886 0.56155,0.41345 0.56155,1.60511 0,3.44856 1.39136,2.53153 3.52588,-2.32386 2.42927,-5.52585 3.94081,-5.82947 3.10849,-0.62439 -0.527,3.29563 -0.32709,3.96201 1.31755,4.3921 1.72834,0.45197 1.91053,1.30577 1.67835,7.86491 -0.23199,6.55381 -0.48472,7.39093 -2.31258,7.66006 -1.2936,0.19047 -2.97385,-0.79324 -4.54571,-2.66129 z m 64,0 c -1.78879,-2.12586 -2.69164,-4.71406 -3.19433,-9.15727 -0.38541,-3.4066 -0.44805,-6.44652 -0.1392,-6.75537 0.30885,-0.30886 0.56155,0.41345 0.56155,1.60511 0,3.44856 1.39136,2.53153 3.52588,-2.32386 2.42927,-5.52585 3.94081,-5.82947 3.10849,-0.62439 -0.527,3.29563 -0.32709,3.96201 1.31755,4.3921 1.72834,0.45197 1.91053,1.30577 1.67835,7.86491 -0.23199,6.55381 -0.48472,7.39093 -2.31258,7.66006 -1.2936,0.19047 -2.97385,-0.79324 -4.54571,-2.66129 z m 64,0 c -1.78879,-2.12586 -2.69164,-4.71406 -3.19433,-9.15727 -0.38541,-3.4066 -0.44805,-6.44652 -0.1392,-6.75537 0.30885,-0.30886 0.56155,0.41345 0.56155,1.60511 0,3.44856 1.39136,2.53153 3.52588,-2.32386 2.42927,-5.52585 3.94081,-5.82947 3.10849,-0.62439 -0.527,3.29563 -0.32709,3.96201 1.31755,4.3921 1.72834,0.45197 1.91053,1.30577 1.67835,7.86491 -0.23199,6.55381 -0.48472,7.39093 -2.31258,7.66006 -1.2936,0.19047 -2.97385,-0.79324 -4.54571,-2.66129 z m 64,0 c -1.78879,-2.12586 -2.69164,-4.71406 -3.19433,-9.15727 -0.38541,-3.4066 -0.44805,-6.44652 -0.1392,-6.75537 0.30885,-0.30886 0.56155,0.41345 0.56155,1.60511 0,3.44856 1.39136,2.53153 3.52588,-2.32386 2.42927,-5.52585 3.94081,-5.82947 3.10849,-0.62439 -0.527,3.29563 -0.32709,3.96201 1.31755,4.3921 1.72834,0.45197 1.91053,1.30577 1.67835,7.86491 -0.23199,6.55381 -0.48472,7.39093 -2.31258,7.66006 -1.2936,0.19047 -2.97385,-0.79324 -4.54571,-2.66129 z M 522.18353,505 c 0,-5.775 0.16528,-8.1375 0.36728,-5.25 0.202,2.8875 0.202,7.6125 0,10.5 -0.202,2.8875 -0.36728,0.525 -0.36728,-5.25 z m 64,0 c 0,-5.775 0.16528,-8.1375 0.36728,-5.25 0.202,2.8875 0.202,7.6125 0,10.5 -0.202,2.8875 -0.36728,0.525 -0.36728,-5.25 z m 64,0 c 0,-5.775 0.16528,-8.1375 0.36728,-5.25 0.202,2.8875 0.202,7.6125 0,10.5 -0.202,2.8875 -0.36728,0.525 -0.36728,-5.25 z m 64,0 c 0,-5.775 0.16528,-8.1375 0.36728,-5.25 0.202,2.8875 0.202,7.6125 0,10.5 -0.202,2.8875 -0.36728,0.525 -0.36728,-5.25 z m 64,0 c 0,-5.775 0.16528,-8.1375 0.36728,-5.25 0.202,2.8875 0.202,7.6125 0,10.5 -0.202,2.8875 -0.36728,0.525 -0.36728,-5.25 z M 520.42056,492.41821 c -0.95232,-2.48169 -0.68065,-11.75684 0.39301,-13.41821 0.66926,-1.03561 0.97411,1.05413 0.98469,6.75 0.0154,8.28879 -0.25453,9.59516 -1.3777,6.66821 z m 64,0 c -0.95232,-2.48169 -0.68065,-11.75684 0.39301,-13.41821 0.66926,-1.03561 0.97412,1.05413 0.98469,6.75 0.0154,8.28879 -0.25452,9.59516 -1.3777,6.66821 z m 64,0 c -0.95232,-2.48169 -0.68065,-11.75684 0.39301,-13.41821 0.66926,-1.03561 0.97412,1.05413 0.98469,6.75 0.0154,8.28879 -0.25452,9.59516 -1.3777,6.66821 z m 64,0 c -0.95232,-2.48169 -0.68065,-11.75684 0.39301,-13.41821 0.66926,-1.03561 0.97412,1.05413 0.98469,6.75 0.0154,8.28879 -0.25452,9.59516 -1.3777,6.66821 z m 64,0 c -0.95232,-2.48169 -0.68065,-11.75684 0.39301,-13.41821 0.66926,-1.03561 0.97412,1.05413 0.98469,6.75 0.0154,8.28879 -0.25452,9.59516 -1.3777,6.66821 z m -267.83501,-5.27735 c -1.78879,-2.12586 -2.69163,-4.71406 -3.19433,-9.15727 -0.38541,-3.4066 -0.44805,-6.44652 -0.1392,-6.75537 0.30885,-0.30886 0.56155,0.41345 0.56155,1.60511 0,3.44856 1.39136,2.53153 3.52588,-2.32386 2.42927,-5.52585 3.94081,-5.82947 3.10849,-0.62439 -0.527,3.29563 -0.32709,3.96201 1.31755,4.3921 1.72834,0.45197 1.91053,1.30577 1.67835,7.86491 -0.23199,6.55381 -0.48471,7.39093 -2.31258,7.66006 -1.2936,0.19047 -2.97385,-0.79324 -4.54571,-2.66129 z m 64,0 c -1.78879,-2.12586 -2.69164,-4.71406 -3.19433,-9.15727 -0.38541,-3.4066 -0.44805,-6.44652 -0.1392,-6.75537 0.30885,-0.30886 0.56155,0.41345 0.56155,1.60511 0,3.44856 1.39136,2.53153 3.52588,-2.32386 2.42927,-5.52585 3.94081,-5.82947 3.10849,-0.62439 -0.527,3.29563 -0.32709,3.96201 1.31755,4.3921 1.72834,0.45197 1.91053,1.30577 1.67835,7.86491 -0.23199,6.55381 -0.48472,7.39093 -2.31258,7.66006 -1.2936,0.19047 -2.97385,-0.79324 -4.54571,-2.66129 z m 64,0 c -1.78879,-2.12586 -2.69164,-4.71406 -3.19433,-9.15727 -0.38541,-3.4066 -0.44805,-6.44652 -0.1392,-6.75537 0.30885,-0.30886 0.56155,0.41345 0.56155,1.60511 0,3.44856 1.39136,2.53153 3.52588,-2.32386 2.42927,-5.52585 3.94081,-5.82947 3.10849,-0.62439 -0.527,3.29563 -0.32709,3.96201 1.31755,4.3921 1.72834,0.45197 1.91053,1.30577 1.67835,7.86491 -0.23199,6.55381 -0.48472,7.39093 -2.31258,7.66006 -1.2936,0.19047 -2.97385,-0.79324 -4.54571,-2.66129 z m 64,0 c -1.78879,-2.12586 -2.69164,-4.71406 -3.19433,-9.15727 -0.38541,-3.4066 -0.44805,-6.44652 -0.1392,-6.75537 0.30885,-0.30886 0.56155,0.41345 0.56155,1.60511 0,3.44856 1.39136,2.53153 3.52588,-2.32386 2.42927,-5.52585 3.94081,-5.82947 3.10849,-0.62439 -0.527,3.29563 -0.32709,3.96201 1.31755,4.3921 1.72834,0.45197 1.91053,1.30577 1.67835,7.86491 -0.23199,6.55381 -0.48472,7.39093 -2.31258,7.66006 -1.2936,0.19047 -2.97385,-0.79324 -4.54571,-2.66129 z m 64,0 c -1.78879,-2.12586 -2.69164,-4.71406 -3.19433,-9.15727 -0.38541,-3.4066 -0.44805,-6.44652 -0.1392,-6.75537 0.30885,-0.30886 0.56155,0.41345 0.56155,1.60511 0,3.44856 1.39136,2.53153 3.52588,-2.32386 2.42927,-5.52585 3.94081,-5.82947 3.10849,-0.62439 -0.527,3.29563 -0.32709,3.96201 1.31755,4.3921 1.72834,0.45197 1.91053,1.30577 1.67835,7.86491 -0.23199,6.55381 -0.48472,7.39093 -2.31258,7.66006 -1.2936,0.19047 -2.97385,-0.79324 -4.54571,-2.66129 z m 64,0 c -1.78879,-2.12586 -2.69164,-4.71406 -3.19433,-9.15727 -0.38541,-3.4066 -0.44805,-6.44652 -0.1392,-6.75537 0.30885,-0.30886 0.56155,0.41345 0.56155,1.60511 0,3.44856 1.39136,2.53153 3.52588,-2.32386 2.42927,-5.52585 3.94081,-5.82947 3.10849,-0.62439 -0.527,3.29563 -0.32709,3.96201 1.31755,4.3921 1.72834,0.45197 1.91053,1.30577 1.67835,7.86491 -0.23199,6.55381 -0.48472,7.39093 -2.31258,7.66006 -1.2936,0.19047 -2.97385,-0.79324 -4.54571,-2.66129 z M 522.18353,449 c 0,-5.775 0.16528,-8.1375 0.36728,-5.25 0.202,2.8875 0.202,7.6125 0,10.5 -0.202,2.8875 -0.36728,0.525 -0.36728,-5.25 z m 64,0 c 0,-5.775 0.16528,-8.1375 0.36728,-5.25 0.202,2.8875 0.202,7.6125 0,10.5 -0.202,2.8875 -0.36728,0.525 -0.36728,-5.25 z m 64,0 c 0,-5.775 0.16528,-8.1375 0.36728,-5.25 0.202,2.8875 0.202,7.6125 0,10.5 -0.202,2.8875 -0.36728,0.525 -0.36728,-5.25 z m 64,0 c 0,-5.775 0.16528,-8.1375 0.36728,-5.25 0.202,2.8875 0.202,7.6125 0,10.5 -0.202,2.8875 -0.36728,0.525 -0.36728,-5.25 z m 64,0 c 0,-5.775 0.16528,-8.1375 0.36728,-5.25 0.202,2.8875 0.202,7.6125 0,10.5 -0.202,2.8875 -0.36728,0.525 -0.36728,-5.25 z M 520.42056,436.41821 c -0.95232,-2.48169 -0.68065,-11.75684 0.39301,-13.41821 0.66926,-1.03561 0.97411,1.05413 0.98469,6.75 0.0154,8.28879 -0.25453,9.59516 -1.3777,6.66821 z m 64,0 c -0.95232,-2.48169 -0.68065,-11.75684 0.39301,-13.41821 0.66926,-1.03561 0.97412,1.05413 0.98469,6.75 0.0154,8.28879 -0.25452,9.59516 -1.3777,6.66821 z m 64,0 c -0.95232,-2.48169 -0.68065,-11.75684 0.39301,-13.41821 0.66926,-1.03561 0.97412,1.05413 0.98469,6.75 0.0154,8.28879 -0.25452,9.59516 -1.3777,6.66821 z m 64,0 c -0.95232,-2.48169 -0.68065,-11.75684 0.39301,-13.41821 0.66926,-1.03561 0.97412,1.05413 0.98469,6.75 0.0154,8.28879 -0.25452,9.59516 -1.3777,6.66821 z m 64,0 c -0.95232,-2.48169 -0.68065,-11.75684 0.39301,-13.41821 0.66926,-1.03561 0.97412,1.05413 0.98469,6.75 0.0154,8.28879 -0.25452,9.59516 -1.3777,6.66821 z m -267.83501,-5.27735 c -1.78879,-2.12586 -2.69163,-4.71406 -3.19433,-9.15727 -0.38541,-3.4066 -0.44805,-6.44652 -0.1392,-6.75537 0.30885,-0.30886 0.56155,0.41345 0.56155,1.60511 0,3.44856 1.39136,2.53153 3.52588,-2.32386 2.42927,-5.52585 3.94081,-5.82947 3.10849,-0.62439 -0.527,3.29563 -0.32709,3.96201 1.31755,4.3921 1.72834,0.45197 1.91053,1.30577 1.67835,7.86491 -0.23199,6.55381 -0.48471,7.39093 -2.31258,7.66006 -1.2936,0.19047 -2.97385,-0.79324 -4.54571,-2.66129 z m 64,0 c -1.78879,-2.12586 -2.69164,-4.71406 -3.19433,-9.15727 -0.38541,-3.4066 -0.44805,-6.44652 -0.1392,-6.75537 0.30885,-0.30886 0.56155,0.41345 0.56155,1.60511 0,3.44856 1.39136,2.53153 3.52588,-2.32386 2.42927,-5.52585 3.94081,-5.82947 3.10849,-0.62439 -0.527,3.29563 -0.32709,3.96201 1.31755,4.3921 1.72834,0.45197 1.91053,1.30577 1.67835,7.86491 -0.23199,6.55381 -0.48472,7.39093 -2.31258,7.66006 -1.2936,0.19047 -2.97385,-0.79324 -4.54571,-2.66129 z m 64,0 c -1.78879,-2.12586 -2.69164,-4.71406 -3.19433,-9.15727 -0.38541,-3.4066 -0.44805,-6.44652 -0.1392,-6.75537 0.30885,-0.30886 0.56155,0.41345 0.56155,1.60511 0,3.44856 1.39136,2.53153 3.52588,-2.32386 2.42927,-5.52585 3.94081,-5.82947 3.10849,-0.62439 -0.527,3.29563 -0.32709,3.96201 1.31755,4.3921 1.72834,0.45197 1.91053,1.30577 1.67835,7.86491 -0.23199,6.55381 -0.48472,7.39093 -2.31258,7.66006 -1.2936,0.19047 -2.97385,-0.79324 -4.54571,-2.66129 z m 64,0 c -1.78879,-2.12586 -2.69164,-4.71406 -3.19433,-9.15727 -0.38541,-3.4066 -0.44805,-6.44652 -0.1392,-6.75537 0.30885,-0.30886 0.56155,0.41345 0.56155,1.60511 0,3.44856 1.39136,2.53153 3.52588,-2.32386 2.42927,-5.52585 3.94081,-5.82947 3.10849,-0.62439 -0.527,3.29563 -0.32709,3.96201 1.31755,4.3921 1.72834,0.45197 1.91053,1.30577 1.67835,7.86491 -0.23199,6.55381 -0.48472,7.39093 -2.31258,7.66006 -1.2936,0.19047 -2.97385,-0.79324 -4.54571,-2.66129 z m 64,0 c -1.78879,-2.12586 -2.69164,-4.71406 -3.19433,-9.15727 -0.38541,-3.4066 -0.44805,-6.44652 -0.1392,-6.75537 0.30885,-0.30886 0.56155,0.41345 0.56155,1.60511 0,3.44856 1.39136,2.53153 3.52588,-2.32386 2.42927,-5.52585 3.94081,-5.82947 3.10849,-0.62439 -0.527,3.29563 -0.32709,3.96201 1.31755,4.3921 1.72834,0.45197 1.91053,1.30577 1.67835,7.86491 -0.23199,6.55381 -0.48472,7.39093 -2.31258,7.66006 -1.2936,0.19047 -2.97385,-0.79324 -4.54571,-2.66129 z m 64,0 c -1.78879,-2.12586 -2.69164,-4.71406 -3.19433,-9.15727 -0.38541,-3.4066 -0.44805,-6.44652 -0.1392,-6.75537 0.30885,-0.30886 0.56155,0.41345 0.56155,1.60511 0,3.44856 1.39136,2.53153 3.52588,-2.32386 2.42927,-5.52585 3.94081,-5.82947 3.10849,-0.62439 -0.527,3.29563 -0.32709,3.96201 1.31755,4.3921 1.72834,0.45197 1.91053,1.30577 1.67835,7.86491 -0.23199,6.55381 -0.48472,7.39093 -2.31258,7.66006 -1.2936,0.19047 -2.97385,-0.79324 -4.54571,-2.66129 z M 522.18353,393 c 0,-5.775 0.16528,-8.1375 0.36728,-5.25 0.202,2.8875 0.202,7.6125 0,10.5 -0.202,2.8875 -0.36728,0.525 -0.36728,-5.25 z m 64,0 c 0,-5.775 0.16528,-8.1375 0.36728,-5.25 0.202,2.8875 0.202,7.6125 0,10.5 -0.202,2.8875 -0.36728,0.525 -0.36728,-5.25 z m 64,0 c 0,-5.775 0.16528,-8.1375 0.36728,-5.25 0.202,2.8875 0.202,7.6125 0,10.5 -0.202,2.8875 -0.36728,0.525 -0.36728,-5.25 z m 64,0 c 0,-5.775 0.16528,-8.1375 0.36728,-5.25 0.202,2.8875 0.202,7.6125 0,10.5 -0.202,2.8875 -0.36728,0.525 -0.36728,-5.25 z m 64,0 c 0,-5.775 0.16528,-8.1375 0.36728,-5.25 0.202,2.8875 0.202,7.6125 0,10.5 -0.202,2.8875 -0.36728,0.525 -0.36728,-5.25 z M 520.42056,380.41821 c -0.95232,-2.48169 -0.68065,-11.75684 0.39301,-13.41821 0.66926,-1.03561 0.97411,1.05413 0.98469,6.75 0.0154,8.28879 -0.25453,9.59516 -1.3777,6.66821 z m 64,0 c -0.95232,-2.48169 -0.68065,-11.75684 0.39301,-13.41821 0.66926,-1.03561 0.97412,1.05413 0.98469,6.75 0.0154,8.28879 -0.25452,9.59516 -1.3777,6.66821 z m 64,0 c -0.95232,-2.48169 -0.68065,-11.75684 0.39301,-13.41821 0.66926,-1.03561 0.97412,1.05413 0.98469,6.75 0.0154,8.28879 -0.25452,9.59516 -1.3777,6.66821 z m 64,0 c -0.95232,-2.48169 -0.68065,-11.75684 0.39301,-13.41821 0.66926,-1.03561 0.97412,1.05413 0.98469,6.75 0.0154,8.28879 -0.25452,9.59516 -1.3777,6.66821 z m 64,0 c -0.95232,-2.48169 -0.68065,-11.75684 0.39301,-13.41821 0.66926,-1.03561 0.97412,1.05413 0.98469,6.75 0.0154,8.28879 -0.25452,9.59516 -1.3777,6.66821 z m -267.83501,-5.27735 c -1.78879,-2.12586 -2.69163,-4.71406 -3.19433,-9.15727 -0.38541,-3.4066 -0.44805,-6.44652 -0.1392,-6.75537 0.30885,-0.30886 0.56155,0.41345 0.56155,1.60511 0,3.44856 1.39136,2.53153 3.52588,-2.32386 2.42927,-5.52585 3.94081,-5.82947 3.10849,-0.62439 -0.527,3.29563 -0.32709,3.96201 1.31755,4.3921 1.72834,0.45197 1.91053,1.30577 1.67835,7.86491 -0.23199,6.55381 -0.48471,7.39093 -2.31258,7.66006 -1.2936,0.19047 -2.97385,-0.79324 -4.54571,-2.66129 z m 64,0 c -1.78879,-2.12586 -2.69164,-4.71406 -3.19433,-9.15727 -0.38541,-3.4066 -0.44805,-6.44652 -0.1392,-6.75537 0.30885,-0.30886 0.56155,0.41345 0.56155,1.60511 0,3.44856 1.39136,2.53153 3.52588,-2.32386 2.42927,-5.52585 3.94081,-5.82947 3.10849,-0.62439 -0.527,3.29563 -0.32709,3.96201 1.31755,4.3921 1.72834,0.45197 1.91053,1.30577 1.67835,7.86491 -0.23199,6.55381 -0.48472,7.39093 -2.31258,7.66006 -1.2936,0.19047 -2.97385,-0.79324 -4.54571,-2.66129 z m 64,0 c -1.78879,-2.12586 -2.69164,-4.71406 -3.19433,-9.15727 -0.38541,-3.4066 -0.44805,-6.44652 -0.1392,-6.75537 0.30885,-0.30886 0.56155,0.41345 0.56155,1.60511 0,3.44856 1.39136,2.53153 3.52588,-2.32386 2.42927,-5.52585 3.94081,-5.82947 3.10849,-0.62439 -0.527,3.29563 -0.32709,3.96201 1.31755,4.3921 1.72834,0.45197 1.91053,1.30577 1.67835,7.86491 -0.23199,6.55381 -0.48472,7.39093 -2.31258,7.66006 -1.2936,0.19047 -2.97385,-0.79324 -4.54571,-2.66129 z m 64,0 c -1.78879,-2.12586 -2.69164,-4.71406 -3.19433,-9.15727 -0.38541,-3.4066 -0.44805,-6.44652 -0.1392,-6.75537 0.30885,-0.30886 0.56155,0.41345 0.56155,1.60511 0,3.44856 1.39136,2.53153 3.52588,-2.32386 2.42927,-5.52585 3.94081,-5.82947 3.10849,-0.62439 -0.527,3.29563 -0.32709,3.96201 1.31755,4.3921 1.72834,0.45197 1.91053,1.30577 1.67835,7.86491 -0.23199,6.55381 -0.48472,7.39093 -2.31258,7.66006 -1.2936,0.19047 -2.97385,-0.79324 -4.54571,-2.66129 z m 64,0 c -1.78879,-2.12586 -2.69164,-4.71406 -3.19433,-9.15727 -0.38541,-3.4066 -0.44805,-6.44652 -0.1392,-6.75537 0.30885,-0.30886 0.56155,0.41345 0.56155,1.60511 0,3.44856 1.39136,2.53153 3.52588,-2.32386 2.42927,-5.52585 3.94081,-5.82947 3.10849,-0.62439 -0.527,3.29563 -0.32709,3.96201 1.31755,4.3921 1.72834,0.45197 1.91053,1.30577 1.67835,7.86491 -0.23199,6.55381 -0.48472,7.39093 -2.31258,7.66006 -1.2936,0.19047 -2.97385,-0.79324 -4.54571,-2.66129 z m 64,0 c -1.78879,-2.12586 -2.69164,-4.71406 -3.19433,-9.15727 -0.38541,-3.4066 -0.44805,-6.44652 -0.1392,-6.75537 0.30885,-0.30886 0.56155,0.41345 0.56155,1.60511 0,3.44856 1.39136,2.53153 3.52588,-2.32386 2.42927,-5.52585 3.94081,-5.82947 3.10849,-0.62439 -0.527,3.29563 -0.32709,3.96201 1.31755,4.3921 1.72834,0.45197 1.91053,1.30577 1.67835,7.86491 -0.23199,6.55381 -0.48472,7.39093 -2.31258,7.66006 -1.2936,0.19047 -2.97385,-0.79324 -4.54571,-2.66129 z M 522.18353,337 c 0,-5.775 0.16528,-8.1375 0.36728,-5.25 0.202,2.8875 0.202,7.6125 0,10.5 -0.202,2.8875 -0.36728,0.525 -0.36728,-5.25 z m 64,0 c 0,-5.775 0.16528,-8.1375 0.36728,-5.25 0.202,2.8875 0.202,7.6125 0,10.5 -0.202,2.8875 -0.36728,0.525 -0.36728,-5.25 z m 64,0 c 0,-5.775 0.16528,-8.1375 0.36728,-5.25 0.202,2.8875 0.202,7.6125 0,10.5 -0.202,2.8875 -0.36728,0.525 -0.36728,-5.25 z m 64,0 c 0,-5.775 0.16528,-8.1375 0.36728,-5.25 0.202,2.8875 0.202,7.6125 0,10.5 -0.202,2.8875 -0.36728,0.525 -0.36728,-5.25 z m 64,0 c 0,-5.775 0.16528,-8.1375 0.36728,-5.25 0.202,2.8875 0.202,7.6125 0,10.5 -0.202,2.8875 -0.36728,0.525 -0.36728,-5.25 z M 520.42056,324.41821 c -0.95232,-2.48169 -0.68065,-11.75684 0.39301,-13.41821 0.66926,-1.03561 0.97411,1.05413 0.98469,6.75 0.0154,8.28879 -0.25453,9.59516 -1.3777,6.66821 z m 64,0 c -0.95232,-2.48169 -0.68065,-11.75684 0.39301,-13.41821 0.66926,-1.03561 0.97412,1.05413 0.98469,6.75 0.0154,8.28879 -0.25452,9.59516 -1.3777,6.66821 z m 64,0 c -0.95232,-2.48169 -0.68065,-11.75684 0.39301,-13.41821 0.66926,-1.03561 0.97412,1.05413 0.98469,6.75 0.0154,8.28879 -0.25452,9.59516 -1.3777,6.66821 z m 64,0 c -0.95232,-2.48169 -0.68065,-11.75684 0.39301,-13.41821 0.66926,-1.03561 0.97412,1.05413 0.98469,6.75 0.0154,8.28879 -0.25452,9.59516 -1.3777,6.66821 z m 64,0 c -0.95232,-2.48169 -0.68065,-11.75684 0.39301,-13.41821 0.66926,-1.03561 0.97412,1.05413 0.98469,6.75 0.0154,8.28879 -0.25452,9.59516 -1.3777,6.66821 z m -267.83501,-5.27735 c -1.78879,-2.12586 -2.69163,-4.71406 -3.19433,-9.15727 -0.38541,-3.4066 -0.44805,-6.44652 -0.1392,-6.75537 0.30885,-0.30886 0.56155,0.41345 0.56155,1.60511 0,3.44856 1.39136,2.53153 3.52588,-2.32386 2.42927,-5.52585 3.94081,-5.82947 3.10849,-0.62439 -0.527,3.29563 -0.32709,3.96201 1.31755,4.3921 1.72834,0.45197 1.91053,1.30577 1.67835,7.86491 -0.23199,6.55381 -0.48471,7.39093 -2.31258,7.66006 -1.2936,0.19047 -2.97385,-0.79324 -4.54571,-2.66129 z m 64,0 c -1.78879,-2.12586 -2.69164,-4.71406 -3.19433,-9.15727 -0.38541,-3.4066 -0.44805,-6.44652 -0.1392,-6.75537 0.30885,-0.30886 0.56155,0.41345 0.56155,1.60511 0,3.44856 1.39136,2.53153 3.52588,-2.32386 2.42927,-5.52585 3.94081,-5.82947 3.10849,-0.62439 -0.527,3.29563 -0.32709,3.96201 1.31755,4.3921 1.72834,0.45197 1.91053,1.30577 1.67835,7.86491 -0.23199,6.55381 -0.48472,7.39093 -2.31258,7.66006 -1.2936,0.19047 -2.97385,-0.79324 -4.54571,-2.66129 z m 64,0 c -1.78879,-2.12586 -2.69164,-4.71406 -3.19433,-9.15727 -0.38541,-3.4066 -0.44805,-6.44652 -0.1392,-6.75537 0.30885,-0.30886 0.56155,0.41345 0.56155,1.60511 0,3.44856 1.39136,2.53153 3.52588,-2.32386 2.42927,-5.52585 3.94081,-5.82947 3.10849,-0.62439 -0.527,3.29563 -0.32709,3.96201 1.31755,4.3921 1.72834,0.45197 1.91053,1.30577 1.67835,7.86491 -0.23199,6.55381 -0.48472,7.39093 -2.31258,7.66006 -1.2936,0.19047 -2.97385,-0.79324 -4.54571,-2.66129 z m 64,0 c -1.78879,-2.12586 -2.69164,-4.71406 -3.19433,-9.15727 -0.38541,-3.4066 -0.44805,-6.44652 -0.1392,-6.75537 0.30885,-0.30886 0.56155,0.41345 0.56155,1.60511 0,3.44856 1.39136,2.53153 3.52588,-2.32386 2.42927,-5.52585 3.94081,-5.82947 3.10849,-0.62439 -0.527,3.29563 -0.32709,3.96201 1.31755,4.3921 1.72834,0.45197 1.91053,1.30577 1.67835,7.86491 -0.23199,6.55381 -0.48472,7.39093 -2.31258,7.66006 -1.2936,0.19047 -2.97385,-0.79324 -4.54571,-2.66129 z m 64,0 c -1.78879,-2.12586 -2.69164,-4.71406 -3.19433,-9.15727 -0.38541,-3.4066 -0.44805,-6.44652 -0.1392,-6.75537 0.30885,-0.30886 0.56155,0.41345 0.56155,1.60511 0,3.44856 1.39136,2.53153 3.52588,-2.32386 2.42927,-5.52585 3.94081,-5.82947 3.10849,-0.62439 -0.527,3.29563 -0.32709,3.96201 1.31755,4.3921 1.72834,0.45197 1.91053,1.30577 1.67835,7.86491 -0.23199,6.55381 -0.48472,7.39093 -2.31258,7.66006 -1.2936,0.19047 -2.97385,-0.79324 -4.54571,-2.66129 z m 64,0 c -1.78879,-2.12586 -2.69164,-4.71406 -3.19433,-9.15727 -0.38541,-3.4066 -0.44805,-6.44652 -0.1392,-6.75537 0.30885,-0.30886 0.56155,0.41345 0.56155,1.60511 0,3.44856 1.39136,2.53153 3.52588,-2.32386 2.42927,-5.52585 3.94081,-5.82947 3.10849,-0.62439 -0.527,3.29563 -0.32709,3.96201 1.31755,4.3921 1.72834,0.45197 1.91053,1.30577 1.67835,7.86491 -0.23199,6.55381 -0.48472,7.39093 -2.31258,7.66006 -1.2936,0.19047 -2.97385,-0.79324 -4.54571,-2.66129 z M 522.18353,281 c 0,-5.775 0.16528,-8.1375 0.36728,-5.25 0.202,2.8875 0.202,7.6125 0,10.5 -0.202,2.8875 -0.36728,0.525 -0.36728,-5.25 z m 64,0 c 0,-5.775 0.16528,-8.1375 0.36728,-5.25 0.202,2.8875 0.202,7.6125 0,10.5 -0.202,2.8875 -0.36728,0.525 -0.36728,-5.25 z m 64,0 c 0,-5.775 0.16528,-8.1375 0.36728,-5.25 0.202,2.8875 0.202,7.6125 0,10.5 -0.202,2.8875 -0.36728,0.525 -0.36728,-5.25 z m 64,0 c 0,-5.775 0.16528,-8.1375 0.36728,-5.25 0.202,2.8875 0.202,7.6125 0,10.5 -0.202,2.8875 -0.36728,0.525 -0.36728,-5.25 z m 64,0 c 0,-5.775 0.16528,-8.1375 0.36728,-5.25 0.202,2.8875 0.202,7.6125 0,10.5 -0.202,2.8875 -0.36728,0.525 -0.36728,-5.25 z M 520.42056,268.41821 c -0.95232,-2.48169 -0.68065,-11.75684 0.39301,-13.41821 0.66926,-1.03561 0.97411,1.05413 0.98469,6.75 0.0154,8.28879 -0.25453,9.59516 -1.3777,6.66821 z m 64,0 c -0.95232,-2.48169 -0.68065,-11.75684 0.39301,-13.41821 0.66926,-1.03561 0.97412,1.05413 0.98469,6.75 0.0154,8.28879 -0.25452,9.59516 -1.3777,6.66821 z m 64,0 c -0.95232,-2.48169 -0.68065,-11.75684 0.39301,-13.41821 0.66926,-1.03561 0.97412,1.05413 0.98469,6.75 0.0154,8.28879 -0.25452,9.59516 -1.3777,6.66821 z m 64,0 c -0.95232,-2.48169 -0.68065,-11.75684 0.39301,-13.41821 0.66926,-1.03561 0.97412,1.05413 0.98469,6.75 0.0154,8.28879 -0.25452,9.59516 -1.3777,6.66821 z m 64,0 c -0.95232,-2.48169 -0.68065,-11.75684 0.39301,-13.41821 0.66926,-1.03561 0.97412,1.05413 0.98469,6.75 0.0154,8.28879 -0.25452,9.59516 -1.3777,6.66821 z m -267.83501,-5.27735 c -1.78879,-2.12586 -2.69163,-4.71406 -3.19433,-9.15727 -0.38541,-3.4066 -0.44805,-6.44652 -0.1392,-6.75537 0.30885,-0.30886 0.56155,0.41345 0.56155,1.60511 0,3.44856 1.39136,2.53153 3.52588,-2.32386 2.42927,-5.52585 3.94081,-5.82947 3.10849,-0.62439 -0.527,3.29563 -0.32709,3.96201 1.31755,4.3921 1.72834,0.45197 1.91053,1.30577 1.67835,7.86491 -0.23199,6.55381 -0.48471,7.39093 -2.31258,7.66006 -1.2936,0.19047 -2.97385,-0.79324 -4.54571,-2.66129 z m 64,0 c -1.78879,-2.12586 -2.69164,-4.71406 -3.19433,-9.15727 -0.38541,-3.4066 -0.44805,-6.44652 -0.1392,-6.75537 0.30885,-0.30886 0.56155,0.41345 0.56155,1.60511 0,3.44856 1.39136,2.53153 3.52588,-2.32386 2.42927,-5.52585 3.94081,-5.82947 3.10849,-0.62439 -0.527,3.29563 -0.32709,3.96201 1.31755,4.3921 1.72834,0.45197 1.91053,1.30577 1.67835,7.86491 -0.23199,6.55381 -0.48472,7.39093 -2.31258,7.66006 -1.2936,0.19047 -2.97385,-0.79324 -4.54571,-2.66129 z m 64,0 c -1.78879,-2.12586 -2.69164,-4.71406 -3.19433,-9.15727 -0.38541,-3.4066 -0.44805,-6.44652 -0.1392,-6.75537 0.30885,-0.30886 0.56155,0.41345 0.56155,1.60511 0,3.44856 1.39136,2.53153 3.52588,-2.32386 2.42927,-5.52585 3.94081,-5.82947 3.10849,-0.62439 -0.527,3.29563 -0.32709,3.96201 1.31755,4.3921 1.72834,0.45197 1.91053,1.30577 1.67835,7.86491 -0.23199,6.55381 -0.48472,7.39093 -2.31258,7.66006 -1.2936,0.19047 -2.97385,-0.79324 -4.54571,-2.66129 z m 64,0 c -1.78879,-2.12586 -2.69164,-4.71406 -3.19433,-9.15727 -0.38541,-3.4066 -0.44805,-6.44652 -0.1392,-6.75537 0.30885,-0.30886 0.56155,0.41345 0.56155,1.60511 0,3.44856 1.39136,2.53153 3.52588,-2.32386 2.42927,-5.52585 3.94081,-5.82947 3.10849,-0.62439 -0.527,3.29563 -0.32709,3.96201 1.31755,4.3921 1.72834,0.45197 1.91053,1.30577 1.67835,7.86491 -0.23199,6.55381 -0.48472,7.39093 -2.31258,7.66006 -1.2936,0.19047 -2.97385,-0.79324 -4.54571,-2.66129 z m 64,0 c -1.78879,-2.12586 -2.69164,-4.71406 -3.19433,-9.15727 -0.38541,-3.4066 -0.44805,-6.44652 -0.1392,-6.75537 0.30885,-0.30886 0.56155,0.41345 0.56155,1.60511 0,3.44856 1.39136,2.53153 3.52588,-2.32386 2.42927,-5.52585 3.94081,-5.82947 3.10849,-0.62439 -0.527,3.29563 -0.32709,3.96201 1.31755,4.3921 1.72834,0.45197 1.91053,1.30577 1.67835,7.86491 -0.23199,6.55381 -0.48472,7.39093 -2.31258,7.66006 -1.2936,0.19047 -2.97385,-0.79324 -4.54571,-2.66129 z m 64,0 c -1.78879,-2.12586 -2.69164,-4.71406 -3.19433,-9.15727 -0.38541,-3.4066 -0.44805,-6.44652 -0.1392,-6.75537 0.30885,-0.30886 0.56155,0.41345 0.56155,1.60511 0,3.44856 1.39136,2.53153 3.52588,-2.32386 2.42927,-5.52585 3.94081,-5.82947 3.10849,-0.62439 -0.527,3.29563 -0.32709,3.96201 1.31755,4.3921 1.72834,0.45197 1.91053,1.30577 1.67835,7.86491 -0.23199,6.55381 -0.48472,7.39093 -2.31258,7.66006 -1.2936,0.19047 -2.97385,-0.79324 -4.54571,-2.66129 z M 522.18353,225 c 0,-5.775 0.16528,-8.1375 0.36728,-5.25 0.202,2.8875 0.202,7.6125 0,10.5 -0.202,2.8875 -0.36728,0.525 -0.36728,-5.25 z m 64,0 c 0,-5.775 0.16528,-8.1375 0.36728,-5.25 0.202,2.8875 0.202,7.6125 0,10.5 -0.202,2.8875 -0.36728,0.525 -0.36728,-5.25 z m 64,0 c 0,-5.775 0.16528,-8.1375 0.36728,-5.25 0.202,2.8875 0.202,7.6125 0,10.5 -0.202,2.8875 -0.36728,0.525 -0.36728,-5.25 z m 64,0 c 0,-5.775 0.16528,-8.1375 0.36728,-5.25 0.202,2.8875 0.202,7.6125 0,10.5 -0.202,2.8875 -0.36728,0.525 -0.36728,-5.25 z m 64,0 c 0,-5.775 0.16528,-8.1375 0.36728,-5.25 0.202,2.8875 0.202,7.6125 0,10.5 -0.202,2.8875 -0.36728,0.525 -0.36728,-5.25 z M 520.42056,212.41821 c -0.95232,-2.48169 -0.68065,-11.75684 0.39301,-13.41821 0.66926,-1.03561 0.97411,1.05413 0.98469,6.75 0.0154,8.28879 -0.25453,9.59516 -1.3777,6.66821 z m 64,0 c -0.95232,-2.48169 -0.68065,-11.75684 0.39301,-13.41821 0.66926,-1.03561 0.97412,1.05413 0.98469,6.75 0.0154,8.28879 -0.25452,9.59516 -1.3777,6.66821 z m 64,0 c -0.95232,-2.48169 -0.68065,-11.75684 0.39301,-13.41821 0.66926,-1.03561 0.97412,1.05413 0.98469,6.75 0.0154,8.28879 -0.25452,9.59516 -1.3777,6.66821 z m 64,0 c -0.95232,-2.48169 -0.68065,-11.75684 0.39301,-13.41821 0.66926,-1.03561 0.97412,1.05413 0.98469,6.75 0.0154,8.28879 -0.25452,9.59516 -1.3777,6.66821 z m 64,0 c -0.95232,-2.48169 -0.68065,-11.75684 0.39301,-13.41821 0.66926,-1.03561 0.97412,1.05413 0.98469,6.75 0.0154,8.28879 -0.25452,9.59516 -1.3777,6.66821 z m -267.83501,-5.27735 c -1.78879,-2.12586 -2.69163,-4.71406 -3.19433,-9.15727 -0.38541,-3.4066 -0.44805,-6.44652 -0.1392,-6.75537 0.30885,-0.30886 0.56155,0.41345 0.56155,1.60511 0,3.44856 1.39136,2.53153 3.52588,-2.32386 2.42927,-5.52585 3.94081,-5.82947 3.10849,-0.62439 -0.527,3.29563 -0.32709,3.96201 1.31755,4.3921 1.72834,0.45197 1.91053,1.30577 1.67835,7.86491 -0.23199,6.55381 -0.48471,7.39093 -2.31258,7.66006 -1.2936,0.19047 -2.97385,-0.79324 -4.54571,-2.66129 z m 64,0 c -1.78879,-2.12586 -2.69164,-4.71406 -3.19433,-9.15727 -0.38541,-3.4066 -0.44805,-6.44652 -0.1392,-6.75537 0.30885,-0.30886 0.56155,0.41345 0.56155,1.60511 0,3.44856 1.39136,2.53153 3.52588,-2.32386 2.42927,-5.52585 3.94081,-5.82947 3.10849,-0.62439 -0.527,3.29563 -0.32709,3.96201 1.31755,4.3921 1.72834,0.45197 1.91053,1.30577 1.67835,7.86491 -0.23199,6.55381 -0.48472,7.39093 -2.31258,7.66006 -1.2936,0.19047 -2.97385,-0.79324 -4.54571,-2.66129 z m 64,0 c -1.78879,-2.12586 -2.69164,-4.71406 -3.19433,-9.15727 -0.38541,-3.4066 -0.44805,-6.44652 -0.1392,-6.75537 0.30885,-0.30886 0.56155,0.41345 0.56155,1.60511 0,3.44856 1.39136,2.53153 3.52588,-2.32386 2.42927,-5.52585 3.94081,-5.82947 3.10849,-0.62439 -0.527,3.29563 -0.32709,3.96201 1.31755,4.3921 1.72834,0.45197 1.91053,1.30577 1.67835,7.86491 -0.23199,6.55381 -0.48472,7.39093 -2.31258,7.66006 -1.2936,0.19047 -2.97385,-0.79324 -4.54571,-2.66129 z m 64,0 c -1.78879,-2.12586 -2.69164,-4.71406 -3.19433,-9.15727 -0.38541,-3.4066 -0.44805,-6.44652 -0.1392,-6.75537 0.30885,-0.30886 0.56155,0.41345 0.56155,1.60511 0,3.44856 1.39136,2.53153 3.52588,-2.32386 2.42927,-5.52585 3.94081,-5.82947 3.10849,-0.62439 -0.527,3.29563 -0.32709,3.96201 1.31755,4.3921 1.72834,0.45197 1.91053,1.30577 1.67835,7.86491 -0.23199,6.55381 -0.48472,7.39093 -2.31258,7.66006 -1.2936,0.19047 -2.97385,-0.79324 -4.54571,-2.66129 z m 64,0 c -1.78879,-2.12586 -2.69164,-4.71406 -3.19433,-9.15727 -0.38541,-3.4066 -0.44805,-6.44652 -0.1392,-6.75537 0.30885,-0.30886 0.56155,0.41345 0.56155,1.60511 0,3.44856 1.39136,2.53153 3.52588,-2.32386 2.42927,-5.52585 3.94081,-5.82947 3.10849,-0.62439 -0.527,3.29563 -0.32709,3.96201 1.31755,4.3921 1.72834,0.45197 1.91053,1.30577 1.67835,7.86491 -0.23199,6.55381 -0.48472,7.39093 -2.31258,7.66006 -1.2936,0.19047 -2.97385,-0.79324 -4.54571,-2.66129 z m 64,0 c -1.78879,-2.12586 -2.69164,-4.71406 -3.19433,-9.15727 -0.38541,-3.4066 -0.44805,-6.44652 -0.1392,-6.75537 0.30885,-0.30886 0.56155,0.41345 0.56155,1.60511 0,3.44856 1.39136,2.53153 3.52588,-2.32386 2.42927,-5.52585 3.94081,-5.82947 3.10849,-0.62439 -0.527,3.29563 -0.32709,3.96201 1.31755,4.3921 1.72834,0.45197 1.91053,1.30577 1.67835,7.86491 -0.23199,6.55381 -0.48472,7.39093 -2.31258,7.66006 -1.2936,0.19047 -2.97385,-0.79324 -4.54571,-2.66129 z M 522.18353,169 c 0,-5.775 0.16528,-8.1375 0.36728,-5.25 0.202,2.8875 0.202,7.6125 0,10.5 -0.202,2.8875 -0.36728,0.525 -0.36728,-5.25 z m 64,0 c 0,-5.775 0.16528,-8.1375 0.36728,-5.25 0.202,2.8875 0.202,7.6125 0,10.5 -0.202,2.8875 -0.36728,0.525 -0.36728,-5.25 z m 64,0 c 0,-5.775 0.16528,-8.1375 0.36728,-5.25 0.202,2.8875 0.202,7.6125 0,10.5 -0.202,2.8875 -0.36728,0.525 -0.36728,-5.25 z m 64,0 c 0,-5.775 0.16528,-8.1375 0.36728,-5.25 0.202,2.8875 0.202,7.6125 0,10.5 -0.202,2.8875 -0.36728,0.525 -0.36728,-5.25 z m 64,0 c 0,-5.775 0.16528,-8.1375 0.36728,-5.25 0.202,2.8875 0.202,7.6125 0,10.5 -0.202,2.8875 -0.36728,0.525 -0.36728,-5.25 z M 520.42056,156.41821 c -0.95232,-2.48169 -0.68065,-11.75684 0.39301,-13.41821 0.66926,-1.03561 0.97411,1.05413 0.98469,6.75 0.0154,8.28879 -0.25453,9.59516 -1.3777,6.66821 z m 64,0 c -0.95232,-2.48169 -0.68065,-11.75684 0.39301,-13.41821 0.66926,-1.03561 0.97412,1.05413 0.98469,6.75 0.0154,8.28879 -0.25452,9.59516 -1.3777,6.66821 z m 64,0 c -0.95232,-2.48169 -0.68065,-11.75684 0.39301,-13.41821 0.66926,-1.03561 0.97412,1.05413 0.98469,6.75 0.0154,8.28879 -0.25452,9.59516 -1.3777,6.66821 z m 64,0 c -0.95232,-2.48169 -0.68065,-11.75684 0.39301,-13.41821 0.66926,-1.03561 0.97412,1.05413 0.98469,6.75 0.0154,8.28879 -0.25452,9.59516 -1.3777,6.66821 z m 64,0 c -0.95232,-2.48169 -0.68065,-11.75684 0.39301,-13.41821 0.66926,-1.03561 0.97412,1.05413 0.98469,6.75 0.0154,8.28879 -0.25452,9.59516 -1.3777,6.66821 z m -267.83501,-5.27735 c -1.78879,-2.12586 -2.69163,-4.71406 -3.19433,-9.15727 -0.38541,-3.4066 -0.44805,-6.44652 -0.1392,-6.75537 0.30885,-0.30886 0.56155,0.41345 0.56155,1.60511 0,3.44856 1.39136,2.53153 3.52588,-2.32386 2.42927,-5.52585 3.94081,-5.82947 3.10849,-0.62439 -0.527,3.29563 -0.32709,3.96201 1.31755,4.3921 1.72834,0.45197 1.91053,1.30577 1.67835,7.86491 -0.23199,6.55381 -0.48471,7.39093 -2.31258,7.66006 -1.2936,0.19047 -2.97385,-0.79324 -4.54571,-2.66129 z m 64,0 c -1.78879,-2.12586 -2.69164,-4.71406 -3.19433,-9.15727 -0.38541,-3.4066 -0.44805,-6.44652 -0.1392,-6.75537 0.30885,-0.30886 0.56155,0.41345 0.56155,1.60511 0,3.44856 1.39136,2.53153 3.52588,-2.32386 2.42927,-5.52585 3.94081,-5.82947 3.10849,-0.62439 -0.527,3.29563 -0.32709,3.96201 1.31755,4.3921 1.72834,0.45197 1.91053,1.30577 1.67835,7.86491 -0.23199,6.55381 -0.48472,7.39093 -2.31258,7.66006 -1.2936,0.19047 -2.97385,-0.79324 -4.54571,-2.66129 z m 64,0 c -1.78879,-2.12586 -2.69164,-4.71406 -3.19433,-9.15727 -0.38541,-3.4066 -0.44805,-6.44652 -0.1392,-6.75537 0.30885,-0.30886 0.56155,0.41345 0.56155,1.60511 0,3.44856 1.39136,2.53153 3.52588,-2.32386 2.42927,-5.52585 3.94081,-5.82947 3.10849,-0.62439 -0.527,3.29563 -0.32709,3.96201 1.31755,4.3921 1.72834,0.45197 1.91053,1.30577 1.67835,7.86491 -0.23199,6.55381 -0.48472,7.39093 -2.31258,7.66006 -1.2936,0.19047 -2.97385,-0.79324 -4.54571,-2.66129 z m 64,0 c -1.78879,-2.12586 -2.69164,-4.71406 -3.19433,-9.15727 -0.38541,-3.4066 -0.44805,-6.44652 -0.1392,-6.75537 0.30885,-0.30886 0.56155,0.41345 0.56155,1.60511 0,3.44856 1.39136,2.53153 3.52588,-2.32386 2.42927,-5.52585 3.94081,-5.82947 3.10849,-0.62439 -0.527,3.29563 -0.32709,3.96201 1.31755,4.3921 1.72834,0.45197 1.91053,1.30577 1.67835,7.86491 -0.23199,6.55381 -0.48472,7.39093 -2.31258,7.66006 -1.2936,0.19047 -2.97385,-0.79324 -4.54571,-2.66129 z m 64,0 c -1.78879,-2.12586 -2.69164,-4.71406 -3.19433,-9.15727 -0.38541,-3.4066 -0.44805,-6.44652 -0.1392,-6.75537 0.30885,-0.30886 0.56155,0.41345 0.56155,1.60511 0,3.44856 1.39136,2.53153 3.52588,-2.32386 2.42927,-5.52585 3.94081,-5.82947 3.10849,-0.62439 -0.527,3.29563 -0.32709,3.96201 1.31755,4.3921 1.72834,0.45197 1.91053,1.30577 1.67835,7.86491 -0.23199,6.55381 -0.48472,7.39093 -2.31258,7.66006 -1.2936,0.19047 -2.97385,-0.79324 -4.54571,-2.66129 z m 64,0 c -1.78879,-2.12586 -2.69164,-4.71406 -3.19433,-9.15727 -0.38541,-3.4066 -0.44805,-6.44652 -0.1392,-6.75537 0.30885,-0.30886 0.56155,0.41345 0.56155,1.60511 0,3.44856 1.39136,2.53153 3.52588,-2.32386 2.42927,-5.52585 3.94081,-5.82947 3.10849,-0.62439 -0.527,3.29563 -0.32709,3.96201 1.31755,4.3921 1.72834,0.45197 1.91053,1.30577 1.67835,7.86491 -0.23199,6.55381 -0.48472,7.39093 -2.31258,7.66006 -1.2936,0.19047 -2.97385,-0.79324 -4.54571,-2.66129 z M 522.18353,113 c 0,-5.775 0.16528,-8.1375 0.36728,-5.25 0.202,2.8875 0.202,7.6125 0,10.5 -0.202,2.8875 -0.36728,0.525 -0.36728,-5.25 z m 64,0 c 0,-5.775 0.16528,-8.1375 0.36728,-5.25 0.202,2.8875 0.202,7.6125 0,10.5 -0.202,2.8875 -0.36728,0.525 -0.36728,-5.25 z m 64,0 c 0,-5.775 0.16528,-8.1375 0.36728,-5.25 0.202,2.8875 0.202,7.6125 0,10.5 -0.202,2.8875 -0.36728,0.525 -0.36728,-5.25 z m 64,0 c 0,-5.775 0.16528,-8.1375 0.36728,-5.25 0.202,2.8875 0.202,7.6125 0,10.5 -0.202,2.8875 -0.36728,0.525 -0.36728,-5.25 z m 64,0 c 0,-5.775 0.16528,-8.1375 0.36728,-5.25 0.202,2.8875 0.202,7.6125 0,10.5 -0.202,2.8875 -0.36728,0.525 -0.36728,-5.25 z M 520.42056,100.41821 C 519.46824,97.936519 519.73991,88.661375 520.81357,87 c 0.66926,-1.035612 0.97411,1.054133 0.98469,6.75 0.0154,8.28879 -0.25453,9.59516 -1.3777,6.66821 z m 64,0 C 583.46824,97.936519 583.73991,88.661375 584.81357,87 c 0.66926,-1.035612 0.97412,1.054133 0.98469,6.75 0.0154,8.28879 -0.25452,9.59516 -1.3777,6.66821 z m 64,0 C 647.46824,97.936519 647.73991,88.661375 648.81357,87 c 0.66926,-1.035612 0.97412,1.054133 0.98469,6.75 0.0154,8.28879 -0.25452,9.59516 -1.3777,6.66821 z m 64,0 C 711.46824,97.936519 711.73991,88.661375 712.81357,87 c 0.66926,-1.035612 0.97412,1.054133 0.98469,6.75 0.0154,8.28879 -0.25452,9.59516 -1.3777,6.66821 z m 64,0 C 775.46824,97.936519 775.73991,88.661375 776.81357,87 c 0.66926,-1.035612 0.97412,1.054133 0.98469,6.75 0.0154,8.28879 -0.25452,9.59516 -1.3777,6.66821 z M 508.58555,95.140859 c -1.78879,-2.125859 -2.69163,-4.714062 -3.19433,-9.157269 -0.38541,-3.406604 -0.44805,-6.446522 -0.1392,-6.755374 0.30885,-0.308852 0.56155,0.413451 0.56155,1.605117 0,3.448555 1.39136,2.531527 3.52588,-2.323861 2.42927,-5.525854 3.94081,-5.829471 3.10849,-0.624388 -0.527,3.295627 -0.32709,3.962008 1.31755,4.392092 1.72834,0.45197 1.91053,1.30577 1.67835,7.864917 -0.23199,6.553804 -0.48471,7.390927 -2.31258,7.660058 -1.2936,0.190466 -2.97385,-0.793242 -4.54571,-2.661292 z m 64,0 c -1.78879,-2.125859 -2.69164,-4.714062 -3.19433,-9.157269 -0.38541,-3.406604 -0.44805,-6.446522 -0.1392,-6.755374 0.30885,-0.308852 0.56155,0.413451 0.56155,1.605117 0,3.448555 1.39136,2.531527 3.52588,-2.323861 2.42927,-5.525854 3.94081,-5.829471 3.10849,-0.624388 -0.527,3.295627 -0.32709,3.962008 1.31755,4.392092 1.72834,0.45197 1.91053,1.30577 1.67835,7.864917 -0.23199,6.553804 -0.48472,7.390927 -2.31258,7.660058 -1.2936,0.190466 -2.97385,-0.793242 -4.54571,-2.661292 z m 64,0 c -1.78879,-2.125859 -2.69164,-4.714062 -3.19433,-9.157269 -0.38541,-3.406604 -0.44805,-6.446522 -0.1392,-6.755374 0.30885,-0.308852 0.56155,0.413451 0.56155,1.605117 0,3.448555 1.39136,2.531527 3.52588,-2.323861 2.42927,-5.525854 3.94081,-5.829471 3.10849,-0.624388 -0.527,3.295627 -0.32709,3.962008 1.31755,4.392092 1.72834,0.45197 1.91053,1.30577 1.67835,7.864917 -0.23199,6.553804 -0.48472,7.390927 -2.31258,7.660058 -1.2936,0.190466 -2.97385,-0.793242 -4.54571,-2.661292 z m 64,0 c -1.78879,-2.125859 -2.69164,-4.714062 -3.19433,-9.157269 -0.38541,-3.406604 -0.44805,-6.446522 -0.1392,-6.755374 0.30885,-0.308852 0.56155,0.413451 0.56155,1.605117 0,3.448555 1.39136,2.531527 3.52588,-2.323861 2.42927,-5.525854 3.94081,-5.829471 3.10849,-0.624388 -0.527,3.295627 -0.32709,3.962008 1.31755,4.392092 1.72834,0.45197 1.91053,1.30577 1.67835,7.864917 -0.23199,6.553804 -0.48472,7.390927 -2.31258,7.660058 -1.2936,0.190466 -2.97385,-0.793242 -4.54571,-2.661292 z m 64,0 c -1.78879,-2.125859 -2.69164,-4.714062 -3.19433,-9.157269 -0.38541,-3.406604 -0.44805,-6.446522 -0.1392,-6.755374 0.30885,-0.308852 0.56155,0.413451 0.56155,1.605117 0,3.448555 1.39136,2.531527 3.52588,-2.323861 2.42927,-5.525854 3.94081,-5.829471 3.10849,-0.624388 -0.527,3.295627 -0.32709,3.962008 1.31755,4.392092 1.72834,0.45197 1.91053,1.30577 1.67835,7.864917 -0.23199,6.553804 -0.48472,7.390927 -2.31258,7.660058 -1.2936,0.190466 -2.97385,-0.793242 -4.54571,-2.661292 z m 64,0 c -1.78879,-2.125859 -2.69164,-4.714062 -3.19433,-9.157269 -0.38541,-3.406604 -0.44805,-6.446522 -0.1392,-6.755374 0.30885,-0.308852 0.56155,0.413451 0.56155,1.605117 0,3.448555 1.39136,2.531527 3.52588,-2.323861 2.42927,-5.525854 3.94081,-5.829471 3.10849,-0.624388 -0.527,3.295627 -0.32709,3.962008 1.31755,4.392092 1.72834,0.45197 1.91053,1.30577 1.67835,7.864917 -0.23199,6.553804 -0.48472,7.390927 -2.31258,7.660058 -1.2936,0.190466 -2.97385,-0.793242 -4.54571,-2.661292 z M 522.18353,57 c 0,-5.775 0.16528,-8.1375 0.36728,-5.25 0.202,2.8875 0.202,7.6125 0,10.5 -0.202,2.8875 -0.36728,0.525 -0.36728,-5.25 z m 64,0 c 0,-5.775 0.16528,-8.1375 0.36728,-5.25 0.202,2.8875 0.202,7.6125 0,10.5 -0.202,2.8875 -0.36728,0.525 -0.36728,-5.25 z m 64,0 c 0,-5.775 0.16528,-8.1375 0.36728,-5.25 0.202,2.8875 0.202,7.6125 0,10.5 -0.202,2.8875 -0.36728,0.525 -0.36728,-5.25 z m 64,0 c 0,-5.775 0.16528,-8.1375 0.36728,-5.25 0.202,2.8875 0.202,7.6125 0,10.5 -0.202,2.8875 -0.36728,0.525 -0.36728,-5.25 z m 64,0 c 0,-5.775 0.16528,-8.1375 0.36728,-5.25 0.202,2.8875 0.202,7.6125 0,10.5 -0.202,2.8875 -0.36728,0.525 -0.36728,-5.25 z M 520.42056,44.418213 C 519.46824,41.936519 519.73991,32.661375 520.81357,31 c 0.66926,-1.035612 0.97411,1.054133 0.98469,6.75 0.0154,8.288787 -0.25453,9.595164 -1.3777,6.668213 z m 64,0 C 583.46824,41.936519 583.73991,32.661375 584.81357,31 c 0.66926,-1.035612 0.97412,1.054133 0.98469,6.75 0.0154,8.288787 -0.25452,9.595164 -1.3777,6.668213 z m 64,0 C 647.46824,41.936519 647.73991,32.661375 648.81357,31 c 0.66926,-1.035612 0.97412,1.054133 0.98469,6.75 0.0154,8.288787 -0.25452,9.595164 -1.3777,6.668213 z m 64,0 C 711.46824,41.936519 711.73991,32.661375 712.81357,31 c 0.66926,-1.035612 0.97412,1.054133 0.98469,6.75 0.0154,8.288787 -0.25452,9.595164 -1.3777,6.668213 z m 64,0 C 775.46824,41.936519 775.73991,32.661375 776.81357,31 c 0.66926,-1.035612 0.97412,1.054133 0.98469,6.75 0.0154,8.288787 -0.25452,9.595164 -1.3777,6.668213 z M 508.58555,39.140859 c -1.78879,-2.125859 -2.69163,-4.714062 -3.19433,-9.157269 -0.38541,-3.406604 -0.44805,-6.446522 -0.1392,-6.755374 0.30885,-0.308852 0.56155,0.413451 0.56155,1.605117 0,3.448555 1.39136,2.531527 3.52588,-2.323861 2.42927,-5.525854 3.94081,-5.829471 3.10849,-0.624388 -0.527,3.295627 -0.32709,3.962008 1.31755,4.392092 1.72834,0.45197 1.91053,1.30577 1.67835,7.864917 -0.23199,6.553804 -0.48471,7.390927 -2.31258,7.660058 -1.2936,0.190466 -2.97385,-0.793242 -4.54571,-2.661292 z m 64,0 c -1.78879,-2.125859 -2.69164,-4.714062 -3.19433,-9.157269 -0.38541,-3.406604 -0.44805,-6.446522 -0.1392,-6.755374 0.30885,-0.308852 0.56155,0.413451 0.56155,1.605117 0,3.448555 1.39136,2.531527 3.52588,-2.323861 2.42927,-5.525854 3.94081,-5.829471 3.10849,-0.624388 -0.527,3.295627 -0.32709,3.962008 1.31755,4.392092 1.72834,0.45197 1.91053,1.30577 1.67835,7.864917 -0.23199,6.553804 -0.48472,7.390927 -2.31258,7.660058 -1.2936,0.190466 -2.97385,-0.793242 -4.54571,-2.661292 z m 64,0 c -1.78879,-2.125859 -2.69164,-4.714062 -3.19433,-9.157269 -0.38541,-3.406604 -0.44805,-6.446522 -0.1392,-6.755374 0.30885,-0.308852 0.56155,0.413451 0.56155,1.605117 0,3.448555 1.39136,2.531527 3.52588,-2.323861 2.42927,-5.525854 3.94081,-5.829471 3.10849,-0.624388 -0.527,3.295627 -0.32709,3.962008 1.31755,4.392092 1.72834,0.45197 1.91053,1.30577 1.67835,7.864917 -0.23199,6.553804 -0.48472,7.390927 -2.31258,7.660058 -1.2936,0.190466 -2.97385,-0.793242 -4.54571,-2.661292 z m 64,0 c -1.78879,-2.125859 -2.69164,-4.714062 -3.19433,-9.157269 -0.38541,-3.406604 -0.44805,-6.446522 -0.1392,-6.755374 0.30885,-0.308852 0.56155,0.413451 0.56155,1.605117 0,3.448555 1.39136,2.531527 3.52588,-2.323861 2.42927,-5.525854 3.94081,-5.829471 3.10849,-0.624388 -0.527,3.295627 -0.32709,3.962008 1.31755,4.392092 1.72834,0.45197 1.91053,1.30577 1.67835,7.864917 -0.23199,6.553804 -0.48472,7.390927 -2.31258,7.660058 -1.2936,0.190466 -2.97385,-0.793242 -4.54571,-2.661292 z m 64,0 c -1.78879,-2.125859 -2.69164,-4.714062 -3.19433,-9.157269 -0.38541,-3.406604 -0.44805,-6.446522 -0.1392,-6.755374 0.30885,-0.308852 0.56155,0.413451 0.56155,1.605117 0,3.448555 1.39136,2.531527 3.52588,-2.323861 2.42927,-5.525854 3.94081,-5.829471 3.10849,-0.624388 -0.527,3.295627 -0.32709,3.962008 1.31755,4.392092 1.72834,0.45197 1.91053,1.30577 1.67835,7.864917 -0.23199,6.553804 -0.48472,7.390927 -2.31258,7.660058 -1.2936,0.190466 -2.97385,-0.793242 -4.54571,-2.661292 z m 64,0 c -1.78879,-2.125859 -2.69164,-4.714062 -3.19433,-9.157269 -0.38541,-3.406604 -0.44805,-6.446522 -0.1392,-6.755374 0.30885,-0.308852 0.56155,0.413451 0.56155,1.605117 0,3.062998 1.28148,2.686937 2.83971,-0.833333 1.59415,-3.601443 3.16029,-3.907026 3.16029,-0.616631 0,1.520052 0.70466,2.567641 1.94536,2.892092 1.73634,0.454062 1.91738,1.299333 1.68491,7.866632 -0.23199,6.553804 -0.48472,7.390927 -2.31258,7.660058 -1.2936,0.190466 -2.97385,-0.793242 -4.54571,-2.661292 z"
       id="path2999"
       inkscape:connector-curvature="0" />
    <path
       style="fill:#747474"
       d="m 523.81357,623.5 c 0,-1.55556 0.56667,-2.5 1.5,-2.5 0.93333,0 1.5,0.94444 1.5,2.5 0,1.55556 -0.56667,2.5 -1.5,2.5 -0.93333,0 -1.5,-0.94444 -1.5,-2.5 z m 64,0 c 0,-1.55556 0.56667,-2.5 1.5,-2.5 0.93333,0 1.5,0.94444 1.5,2.5 0,1.55556 -0.56667,2.5 -1.5,2.5 -0.93333,0 -1.5,-0.94444 -1.5,-2.5 z m 64,0 c 0,-1.55556 0.56667,-2.5 1.5,-2.5 0.93333,0 1.5,0.94444 1.5,2.5 0,1.55556 -0.56667,2.5 -1.5,2.5 -0.93333,0 -1.5,-0.94444 -1.5,-2.5 z m 64,0 c 0,-1.55556 0.56667,-2.5 1.5,-2.5 0.93333,0 1.5,0.94444 1.5,2.5 0,1.55556 -0.56667,2.5 -1.5,2.5 -0.93333,0 -1.5,-0.94444 -1.5,-2.5 z m 64,0 c 0,-1.55556 0.56667,-2.5 1.5,-2.5 0.93333,0 1.5,0.94444 1.5,2.5 0,1.55556 -0.56667,2.5 -1.5,2.5 -0.93333,0 -1.5,-0.94444 -1.5,-2.5 z m -248,-6 c 0,-2.44444 0.45238,-3.5 1.5,-3.5 1.04762,0 1.5,1.05556 1.5,3.5 0,2.44444 -0.45238,3.5 -1.5,3.5 -1.04762,0 -1.5,-1.05556 -1.5,-3.5 z m 64,0 c 0,-2.44444 0.45238,-3.5 1.5,-3.5 1.04762,0 1.5,1.05556 1.5,3.5 0,2.44444 -0.45238,3.5 -1.5,3.5 -1.04762,0 -1.5,-1.05556 -1.5,-3.5 z m 64,0 c 0,-2.44444 0.45238,-3.5 1.5,-3.5 1.04762,0 1.5,1.05556 1.5,3.5 0,2.44444 -0.45238,3.5 -1.5,3.5 -1.04762,0 -1.5,-1.05556 -1.5,-3.5 z m 64,0 c 0,-2.44444 0.45238,-3.5 1.5,-3.5 1.04762,0 1.5,1.05556 1.5,3.5 0,2.44444 -0.45238,3.5 -1.5,3.5 -1.04762,0 -1.5,-1.05556 -1.5,-3.5 z m 64,0 c 0,-2.44444 0.45238,-3.5 1.5,-3.5 1.04762,0 1.5,1.05556 1.5,3.5 0,2.44444 -0.45238,3.5 -1.5,3.5 -1.04762,0 -1.5,-1.05556 -1.5,-3.5 z m -249,-304 c 0,-266.444444 0.16999,-300.5 1.5,-300.5 1.33001,0 1.5,34.055556 1.5,300.5 0,266.44444 -0.16999,300.5 -1.5,300.5 -1.33001,0 -1.5,-34.05556 -1.5,-300.5 z m 64,0 c 0,-266.444444 0.16999,-300.5 1.5,-300.5 1.33001,0 1.5,34.055556 1.5,300.5 0,266.44444 -0.16999,300.5 -1.5,300.5 -1.33001,0 -1.5,-34.05556 -1.5,-300.5 z m 64,0 c 0,-266.444444 0.16999,-300.5 1.5,-300.5 1.33001,0 1.5,34.055556 1.5,300.5 0,266.44444 -0.16999,300.5 -1.5,300.5 -1.33001,0 -1.5,-34.05556 -1.5,-300.5 z m 64,0 c 0,-266.444444 0.16999,-300.5 1.5,-300.5 1.33001,0 1.5,34.055556 1.5,300.5 0,266.44444 -0.16999,300.5 -1.5,300.5 -1.33001,0 -1.5,-34.05556 -1.5,-300.5 z m 64,0 c 0,-266.444444 0.16999,-300.5 1.5,-300.5 1.33001,0 1.5,34.055556 1.5,300.5 0,266.44444 -0.16999,300.5 -1.5,300.5 -1.33001,0 -1.5,-34.05556 -1.5,-300.5 z M 461.42056,602.41821 C 460.36147,599.65827 460.75138,46.643627 461.81357,45 c 0.62712,-0.970391 0.97478,97.44865 0.98469,278.75 0.008,154.1375 -0.16154,280.25 -0.3777,280.25 -0.21616,0 -0.66616,-0.7118 -1,-1.58179 z m 7.0233,-6.66821 c -0.78829,-2.94148 -0.78829,-551.558516 0,-554.5 0.33163,-1.2375 1.00049,-2.25 1.48634,-2.25 0.50905,0 0.88337,118.43497 0.88337,279.5 0,161.06503 -0.37432,279.5 -0.88337,279.5 -0.48585,0 -1.15471,-1.0125 -1.48634,-2.25 z M 475.73054,578 c -0.0457,-7.15 -0.083,-130.225 -0.083,-273.5 0,-297.665734 -0.12187,-269.5 1.16605,-269.5 0.66427,0 1,93.33333 1,278 0,184.66667 -0.33573,278 -1,278 -0.61113,0 -1.03229,-5.05535 -1.08303,-13 z"
       id="path2997"
       inkscape:connector-curvature="0" />
  </g>
  <path
     style="fill:#ff0000;stroke:#ff0000;stroke-width:10;stroke-linecap:butt;stroke-linejoin:miter;stroke-miterlimit:4;stroke-opacity:1;stroke-dasharray:none"
     d="m 11.186438,15.165854 381.016952,606.101686 0,0"
     id="path3093"
     inkscape:connector-curvature="0" />
  <path
     style="fill:#ff0000;stroke:#ff0000;stroke-width:10;stroke-linecap:butt;stroke-linejoin:miter;stroke-miterlimit:4;stroke-opacity:1;stroke-dasharray:none"
     d="M 392.20338,15.165853 11.186439,621.26755 l 0,0"
     id="path3093-1"
     inkscape:connector-curvature="0" />
</svg>
