<?xml version="1.0" encoding="UTF-8" standalone="no"?>
<!-- Created with Inkscape (http://www.inkscape.org/) -->

<svg
   xmlns:dc="http://purl.org/dc/elements/1.1/"
   xmlns:cc="http://creativecommons.org/ns#"
   xmlns:rdf="http://www.w3.org/1999/02/22-rdf-syntax-ns#"
   xmlns:svg="http://www.w3.org/2000/svg"
   xmlns="http://www.w3.org/2000/svg"
   xmlns:xlink="http://www.w3.org/1999/xlink"
   xmlns:sodipodi="http://sodipodi.sourceforge.net/DTD/sodipodi-0.dtd"
   xmlns:inkscape="http://www.inkscape.org/namespaces/inkscape"
   height="297mm"
   id="svg3058"
   inkscape:version="0.48.2 r9819"
   sodipodi:docname="11949854232121720811ladybug_02.svg"
   sodipodi:version="0.32"
   width="210mm"
   version="1.1">
  <metadata
     id="metadata3">
    <rdf:RDF>
      <cc:Work
         rdf:about="">
        <dc:title>ladybug</dc:title>
        <dc:description>A ladybug</dc:description>
        <dc:subject>
          <rdf:Bag>
            <rdf:li />
            <rdf:li>beatle</rdf:li>
            <rdf:li>insect</rdf:li>
            <rdf:li>animal</rdf:li>
            <rdf:li>ladybug</rdf:li>
          </rdf:Bag>
        </dc:subject>
        <dc:publisher>
          <cc:Agent
             rdf:about="http://www.openclipart.org">
            <dc:title>Andreas Nilsson</dc:title>
          </cc:Agent>
        </dc:publisher>
        <dc:creator>
          <cc:Agent>
            <dc:title>Andreas Nilsson</dc:title>
          </cc:Agent>
        </dc:creator>
        <dc:rights>
          <cc:Agent>
            <dc:title>Andreas Nilsson</dc:title>
          </cc:Agent>
        </dc:rights>
        <dc:date />
        <dc:format>image/svg+xml</dc:format>
        <dc:type
           rdf:resource="http://purl.org/dc/dcmitype/StillImage" />
        <cc:license
           rdf:resource="http://web.resource.org/cc/PublicDomain" />
        <dc:language>en</dc:language>
      </cc:Work>
      <cc:License
         rdf:about="http://web.resource.org/cc/PublicDomain">
        <cc:permits
           rdf:resource="http://web.resource.org/cc/Reproduction" />
        <cc:permits
           rdf:resource="http://web.resource.org/cc/Distribution" />
        <cc:permits
           rdf:resource="http://web.resource.org/cc/DerivativeWorks" />
      </cc:License>
    </rdf:RDF>
  </metadata>
  <defs
     id="defs3060">
    <linearGradient
       id="linearGradient877">
      <stop
         id="stop878"
         offset="0.0000000"
         style="stop-color:#ededed;stop-opacity:1.0000000;" />
      <stop
         id="stop881"
         offset="0.33916029"
         style="stop-color:#ce3d3d;stop-opacity:1.0000000;" />
      <stop
         id="stop879"
         offset="1.0000000"
         style="stop-color:#650000;stop-opacity:1.0000000;" />
    </linearGradient>
    <radialGradient
       cx="241.70901"
       cy="318.12914"
       fx="175.75905"
       fy="271.26106"
       id="radialGradient880"
       r="102.19911"
       xlink:href="#linearGradient877"
       gradientTransform="matrix(-0.60530102,-0.64893038,0.82403864,-0.76863628,108.29633,781.37836)"
       gradientUnits="userSpaceOnUse" />
    <linearGradient
       id="linearGradient984">
      <stop
         id="stop985"
         offset="0.0000000"
         style="stop-color:#ededed;stop-opacity:0.60483873;" />
      <stop
         id="stop987"
         offset="1.0000000"
         style="stop-color:#000000;stop-opacity:0.0000000;" />
    </linearGradient>
    <linearGradient
       id="linearGradient1142"
       x1="838.06275"
       x2="850.77528"
       xlink:href="#linearGradient984"
       y1="540.85453"
       y2="554.90984"
       gradientTransform="matrix(-0.46575122,-0.499322,1.0709396,-0.99893739,483.49342,1762.1208)"
       gradientUnits="userSpaceOnUse" />
  </defs>
  <sodipodi:namedview
     bordercolor="#666666"
     borderopacity="1.0"
     id="base"
     inkscape:cx="541.6206"
     inkscape:cy="670.49333"
     inkscape:pageopacity="0.0"
     inkscape:pageshadow="2"
     inkscape:window-height="790"
     inkscape:window-width="1150"
     inkscape:window-x="0"
     inkscape:window-y="25"
     inkscape:zoom="0.61399264"
     pagecolor="#ffffff"
     showgrid="false"
     inkscape:window-maximized="0"
     inkscape:current-layer="svg3058" />
  <g
     id="g3143"
     transform="matrix(-0.68209699,0.73126171,-0.73126171,-0.68209699,1025.9046,591.57273)">
    <path
       d="m 578.11801,701.4559 c -2.0034,0.0889 -3.59608,1.69374 -3.6661,3.69789 -0.07,2.00416 1.40617,3.73441 3.39849,3.96286 0.77594,0.10401 2.29233,0.92637 3.90015,2.64131 1.60779,1.71493 3.24428,4.12445 4.6438,6.56265 2.42203,4.21959 3.8902,7.83065 4.30445,8.87963 -4.36303,3.72143 -8.42871,8.03255 -12.142,12.83693 -0.36894,-0.28932 -5.48663,-4.29471 -11.97424,-8.08936 -3.36221,-1.96659 -7.02946,-3.85502 -10.67926,-5.08713 -2.73735,-0.92411 -5.5114,-1.60553 -8.28529,-1.28863 -0.92462,0.10562 -1.84782,0.3388 -2.769,0.69236 -1.35604,0.43419 -2.35827,1.5747 -2.60932,2.97624 -0.25104,1.40156 0.2898,2.83263 1.41083,3.71049 1.12104,0.87788 2.63586,1.06634 3.93635,0.48661 0.73821,-0.28334 2.99923,-0.25837 5.84606,0.70269 2.84683,0.96104 6.18862,2.64663 9.2771,4.45311 6.17697,3.61297 11.36629,7.66401 11.36629,7.66401 0.0154,0.0139 0.0426,0.004 0.0582,0.0176 -0.35556,0.55104 -0.74352,1.06423 -1.08929,1.62635 -2.50188,4.06726 -4.6059,8.25013 -6.3643,12.46466 -0.5227,-0.21472 -1.08257,-0.35612 -1.68182,-0.3186 -0.21937,0.0131 -0.43722,0.0448 -0.65116,0.095 0,0 -9.25868,1.94227 -17.29067,7.48055 -4.016,2.76921 -7.87718,6.54831 -9.84644,11.71546 -1.96926,5.16717 -1.75688,11.55664 1.5892,18.41605 0.93466,1.91221 3.25182,2.6947 5.16399,1.76009 1.91216,-0.93469 2.69525,-3.23269 1.76059,-5.14482 -2.63125,-5.394 -2.52836,-9.14613 -1.32313,-12.30848 1.20521,-3.16236 3.81834,-5.90774 7.02364,-8.11792 4.98381,-3.43646 9.95693,-4.95988 12.40011,-5.63311 -8.09448,26.48004 -2.01303,53.31895 16.61388,67.03317 -0.009,-0.004 0.26392,0.2407 0.23698,0.22416 0.1481,0.0984 0.30094,0.16047 0.44943,0.25664 0.7774,0.55015 1.51446,1.14235 2.33411,1.64651 19.8627,12.21805 46.40875,7.16449 67.03125,-10.46037 0.33485,2.9298 0.55164,6.60831 0.0543,10.24775 -0.52711,3.85759 -1.80953,7.43813 -4.08854,9.94002 -2.279,2.50188 -5.5692,4.27594 -11.5702,4.36002 -2.12327,0.0272 -3.82245,1.77052 -3.79524,3.89381 0.0272,2.12328 1.77051,3.82247 3.89378,3.79521 7.63131,-0.1069 13.42975,-2.79266 17.15354,-6.8806 3.72377,-4.08788 5.35151,-9.23686 6.01195,-14.07017 1.20507,-8.81883 -0.59006,-16.38016 -0.93692,-17.78033 3.71245,-3.96474 7.16475,-8.34627 10.22852,-13.18754 1.24945,0.59862 5.77839,2.78864 11.01717,6.17378 3.00518,1.94198 6.01308,4.16522 8.15473,6.27274 2.14163,2.10747 3.19039,4.10278 3.27041,4.88941 0.21278,2.11282 2.09802,3.65307 4.21082,3.44033 2.11279,-0.2128 3.65307,-2.09804 3.44029,-4.21087 -0.39944,-3.92652 -2.79011,-6.8934 -5.53581,-9.59528 -2.74569,-2.70189 -6.08362,-5.14448 -9.35514,-7.25841 -5.28491,-3.41501 -9.56265,-5.54778 -11.35077,-6.41459 4.0984,-7.89157 6.81893,-16.04098 8.27139,-24.09382 0.38722,0.0749 0.75491,0.20896 1.15822,0.16007 0,7e-5 5.39284,-0.50003 11.28322,-0.16006 2.9452,0.16998 5.99595,0.56526 8.36108,1.24808 2.36512,0.68283 3.84496,1.70491 4.25612,2.30445 0.76615,1.15903 2.10393,1.81038 3.48966,1.71054 1.38572,-0.0999 2.61562,-0.94766 3.20767,-2.20455 0.59206,-1.25681 0.44818,-2.7231 -0.35723,-3.85514 -2.05493,-2.99652 -5.23296,-4.40481 -8.47493,-5.34074 -3.24198,-0.93596 -6.74394,-1.33787 -10.04183,-1.5282 -3.29788,-0.19032 -6.40361,-0.16078 -8.69353,-0.0658 -1.93945,0.0805 -2.81769,0.17044 -3.18641,0.20402 1.72188,-21.3099 -5.81007,-40.88682 -21.73604,-51.39169 l 0.0736,-0.11743 -2.38693,-1.47195 -0.0737,0.11742 c -17.70791,-10.1321 -40.38325,-7.05488 -59.45821,6.19232 -0.891,-2.05884 -2.15602,-4.77729 -3.90997,-7.83297 -1.58368,-2.75906 -3.47227,-5.61307 -5.72255,-8.01332 -2.25029,-2.40024 -4.93862,-4.51908 -8.48453,-4.99436 -0.24851,-0.0368 -0.50004,-0.0491 -0.75097,-0.0368 z"
       id="path3033"
       style="fill-opacity:0.15322577;fill-rule:evenodd;stroke-width:4.55000019"
       transform="matrix(3.477818,0,0,3.477818,-1788.479,-2179.883)"
       inkscape:connector-curvature="0" />
    <path
       d="m 578.04551,698.80044 c -2.00341,0.0889 -3.59608,1.69375 -3.6661,3.6979 -0.07,2.00416 1.40617,3.73441 3.39849,3.96286 0.77594,0.104 2.29233,0.92638 3.90014,2.6413 1.60781,1.71494 3.24428,4.12445 4.64381,6.56266 2.42202,4.21958 3.8902,7.83065 4.30444,8.87962 -4.36303,3.72144 -8.42871,8.03255 -12.142,12.83694 -0.36892,-0.28932 -5.48663,-4.29473 -11.97424,-8.08937 -3.36221,-1.96658 -7.02946,-3.85502 -10.67926,-5.08714 -2.73734,-0.92411 -5.51139,-1.60551 -8.28528,-1.28863 -0.92461,0.10563 -1.84782,0.33881 -2.769,0.69239 -1.35604,0.43418 -2.35828,1.57468 -2.60931,2.97624 -0.25105,1.40154 0.28979,2.83261 1.41082,3.71048 1.12104,0.87787 2.63585,1.06634 3.93634,0.4866 0.73822,-0.28335 2.99925,-0.25836 5.84607,0.70269 2.84683,0.96105 6.18862,2.64664 9.2771,4.45312 6.17698,3.61295 11.36629,7.66399 11.36629,7.66399 0.0154,0.0139 0.0426,0.004 0.0582,0.0176 -0.35556,0.55104 -0.74352,1.06424 -1.08929,1.62636 -2.50189,4.06725 -4.60592,8.25012 -6.36429,12.46467 -0.5227,-0.21474 -1.08258,-0.35614 -1.68184,-0.31861 -0.21937,0.0131 -0.43722,0.0448 -0.65116,0.095 0,0 -9.25869,1.94226 -17.29066,7.48055 -4.016,2.7692 -7.87719,6.54831 -9.84645,11.71547 -1.96926,5.16717 -1.75688,11.55664 1.5892,18.41605 0.93467,1.91221 3.25182,2.6947 5.164,1.76008 1.91217,-0.93466 2.69525,-3.23266 1.76058,-5.14481 -2.63125,-5.39398 -2.52835,-9.14612 -1.32313,-12.30848 1.20521,-3.16236 3.81835,-5.90774 7.02364,-8.11794 4.9838,-3.43645 9.95694,-4.95988 12.40012,-5.6331 -8.09449,26.48006 -2.01303,53.31897 16.61387,67.03318 -0.009,-0.004 0.26394,0.24071 0.23699,0.22417 0.1481,0.0984 0.30095,0.16047 0.44942,0.25664 0.77742,0.55015 1.51446,1.14234 2.33412,1.64651 19.8627,12.21804 46.40876,7.16449 67.03124,-10.46038 0.33484,2.92981 0.55166,6.60832 0.0543,10.24775 -0.52711,3.8576 -1.80953,7.43814 -4.08854,9.94003 -2.27901,2.50188 -5.5692,4.27594 -11.57019,4.36 -2.12328,0.0273 -3.82246,1.77054 -3.79526,3.89382 0.0272,2.12327 1.77052,3.82247 3.89378,3.79521 7.63131,-0.10689 13.42977,-2.79264 17.15354,-6.88058 3.72378,-4.08788 5.35152,-9.23687 6.01196,-14.07018 1.20506,-8.81882 -0.59006,-16.38017 -0.93694,-17.78033 3.71247,-3.96473 7.16476,-8.34627 10.22854,-13.18754 1.24945,0.59861 5.77838,2.78863 11.01715,6.17378 3.0052,1.94197 6.0131,4.16521 8.15474,6.27274 2.14163,2.10747 3.19039,4.10277 3.27042,4.88942 0.21278,2.11282 2.09802,3.65306 4.21081,3.44033 2.1128,-0.21281 3.65307,-2.09806 3.4403,-4.21088 -0.39944,-3.92653 -2.79011,-6.89341 -5.53582,-9.5953 -2.74569,-2.70187 -6.08361,-5.14446 -9.35514,-7.25841 -5.28491,-3.41499 -9.56264,-5.54777 -11.35076,-6.41457 4.09841,-7.89158 6.81892,-16.04098 8.27139,-24.09382 0.38721,0.0749 0.7549,0.20895 1.15821,0.16006 10e-6,8e-5 5.39286,-0.50003 11.28323,-0.16006 2.94519,0.16998 5.99594,0.56526 8.36106,1.24809 2.36514,0.68283 3.84497,1.7049 4.25614,2.30444 0.76615,1.15903 2.10394,1.81038 3.48965,1.71055 1.38572,-0.0999 2.61563,-0.94767 3.20767,-2.20455 0.59206,-1.25681 0.4482,-2.72312 -0.35723,-3.85515 -2.05492,-2.99652 -5.23294,-4.40481 -8.47493,-5.34076 -3.24197,-0.93594 -6.74392,-1.33786 -10.04182,-1.5282 -3.29789,-0.19032 -6.40362,-0.16077 -8.69354,-0.0658 -1.93944,0.0805 -2.81769,0.17044 -3.1864,0.20402 1.72187,-21.3099 -5.81008,-40.88681 -21.73605,-51.39168 l 0.0737,-0.11744 -2.38694,-1.47195 -0.0736,0.11744 c -17.70791,-10.13212 -40.38325,-7.0549 -59.45821,6.1923 -0.89099,-2.05883 -2.15602,-4.7773 -3.90998,-7.83297 -1.58368,-2.75905 -3.47225,-5.61307 -5.72255,-8.01332 -2.25029,-2.40024 -4.93862,-4.51907 -8.48452,-4.99435 -0.24853,-0.0368 -0.50004,-0.0491 -0.75097,-0.0368 z"
       id="path3034"
       style="fill-opacity:0.15322577;fill-rule:evenodd;stroke-width:4.55000019"
       transform="matrix(3.477818,0,0,3.477818,-1788.479,-2179.883)"
       inkscape:connector-curvature="0" />
    <path
       d="m 578.88877,696.12075 c -2.00341,0.0889 -3.59608,1.69374 -3.6661,3.69789 -0.07,2.00416 1.40617,3.73441 3.39849,3.96286 0.77594,0.104 2.29233,0.92637 3.90014,2.64132 1.6078,1.71492 3.24429,4.12444 4.64381,6.56265 2.42203,4.21957 3.89021,7.83064 4.30445,8.87962 -4.36303,3.72143 -8.42871,8.03256 -12.142,12.83693 -0.36894,-0.28932 -5.48663,-4.29471 -11.97424,-8.08936 -3.36221,-1.96659 -7.02947,-3.85501 -10.67926,-5.08714 -2.73734,-0.9241 -5.5114,-1.60552 -8.28529,-1.28862 -0.92462,0.10562 -1.84782,0.33881 -2.76901,0.69237 -1.35603,0.43418 -2.35827,1.57469 -2.60931,2.97624 -0.25104,1.40155 0.2898,2.83262 1.41083,3.71049 1.12103,0.87788 2.63585,1.06634 3.93634,0.48661 0.73822,-0.28335 2.99925,-0.25838 5.84607,0.70268 2.84683,0.96105 6.18862,2.64663 9.2771,4.45312 6.17697,3.61294 11.36629,7.664 11.36629,7.664 0.0154,0.0139 0.0426,0.004 0.0582,0.0176 -0.35556,0.55103 -0.74352,1.06423 -1.08929,1.62633 -2.50189,4.06728 -4.60591,8.25014 -6.3643,12.46468 -0.5227,-0.21474 -1.08256,-0.35613 -1.68183,-0.3186 -0.21937,0.0131 -0.43722,0.0448 -0.65115,0.095 0,0 -9.25868,1.94226 -17.29068,7.48056 -4.01599,2.7692 -7.87718,6.5483 -9.84644,11.71548 -1.96926,5.16717 -1.75688,11.55663 1.58921,18.41604 0.93466,1.9122 3.25181,2.69469 5.16399,1.76009 1.91216,-0.93468 2.69525,-3.23269 1.76058,-5.14482 -2.63125,-5.39399 -2.52834,-9.14613 -1.32314,-12.30849 1.20523,-3.16236 3.81836,-5.90773 7.02366,-8.11793 4.98379,-3.43645 9.95693,-4.95988 12.4001,-5.6331 -8.09448,26.48005 -2.01301,53.31896 16.61389,67.03319 -0.009,-0.004 0.26392,0.2407 0.23698,0.22415 0.14809,0.0984 0.30094,0.16049 0.44942,0.25665 0.77742,0.55015 1.51447,1.14234 2.33412,1.64652 19.8627,12.21802 46.40877,7.16448 67.03125,-10.46039 0.33485,2.92982 0.55166,6.60833 0.0543,10.24775 -0.52712,3.85761 -1.80953,7.43814 -4.08855,9.94002 -2.279,2.50189 -5.5692,4.27594 -11.57019,4.36001 -2.12327,0.0273 -3.82246,1.77054 -3.79525,3.89382 0.0272,2.12328 1.77051,3.82247 3.89379,3.79522 7.6313,-0.1069 13.42975,-2.79266 17.15352,-6.88061 3.72378,-4.08786 5.35152,-9.23686 6.01198,-14.07016 1.20505,-8.81882 -0.59008,-16.38017 -0.93695,-17.78033 3.71245,-3.96474 7.16475,-8.34627 10.22853,-13.18755 1.24947,0.59861 5.77839,2.78864 11.01716,6.17379 3.00521,1.94198 6.0131,4.16521 8.15473,6.27274 2.14164,2.10747 3.1904,4.10277 3.27043,4.88941 0.21278,2.11283 2.09802,3.65307 4.21081,3.44032 2.11279,-0.2128 3.65307,-2.09804 3.44029,-4.21087 -0.39943,-3.92652 -2.79011,-6.8934 -5.5358,-9.59528 -2.7457,-2.70188 -6.08364,-5.14448 -9.35515,-7.25841 -5.28491,-3.415 -9.56264,-5.54779 -11.35077,-6.41459 4.09841,-7.89157 6.81892,-16.04097 8.27138,-24.09382 0.38723,0.0749 0.75491,0.20895 1.15823,0.16007 0,7e-5 5.39284,-0.50003 11.28323,-0.16006 2.94519,0.16999 5.99594,0.56526 8.36107,1.24808 2.36511,0.68283 3.84495,1.70491 4.25612,2.30444 0.76617,1.15904 2.10393,1.81039 3.48967,1.71055 1.38571,-0.0999 2.61561,-0.94766 3.20767,-2.20454 0.59204,-1.25682 0.44818,-2.72312 -0.35725,-3.85514 -2.05492,-2.99654 -5.23294,-4.40481 -8.47493,-5.34076 -3.24197,-0.93596 -6.74392,-1.33789 -10.04182,-1.52821 -3.29789,-0.19031 -6.40361,-0.16077 -8.69353,-0.0658 -1.93945,0.0805 -2.81769,0.17045 -3.18641,0.20403 1.72187,-21.30989 -5.81006,-40.88682 -21.73603,-51.39169 l 0.0736,-0.11743 -2.38694,-1.47194 -0.0736,0.11741 c -17.70791,-10.1321 -40.38324,-7.05489 -59.45821,6.19232 -0.891,-2.05884 -2.15602,-4.77729 -3.90997,-7.83297 -1.58368,-2.75906 -3.47227,-5.61307 -5.72255,-8.01331 -2.2503,-2.40025 -4.93862,-4.51908 -8.48453,-4.99437 -0.24852,-0.0368 -0.50004,-0.0491 -0.75097,-0.0368 z"
       id="path3035"
       style="fill-opacity:0.15322577;fill-rule:evenodd;stroke-width:4.55000019"
       transform="matrix(3.477818,0,0,3.477818,-1788.479,-2179.883)"
       inkscape:connector-curvature="0" />
    <path
       d="m 655.33387,811.68074 c 0,0 8.88202,34.57226 -18.38257,34.95445"
       id="path3036"
       style="fill:none;stroke:#000000;stroke-width:7.68879986;stroke-linecap:round;stroke-linejoin:round"
       transform="matrix(3.477818,0,0,3.477818,-1788.479,-2179.883)"
       inkscape:connector-curvature="0" />
    <path
       d="m 670.14062,794.57539 c 0,0 24.6274,11.51033 25.58633,20.93677"
       id="path3037"
       style="fill:none;stroke:#000000;stroke-width:7.68879986;stroke-linecap:round;stroke-linejoin:round"
       transform="matrix(3.477818,0,0,3.477818,-1788.479,-2179.883)"
       inkscape:connector-curvature="0" />
    <path
       d="m 682.37942,764.10387 c 0,0 22.50624,-2.1549 27.43843,5.0374"
       id="path3038"
       sodipodi:nodetypes="cc"
       style="fill:none;stroke:#000000;stroke-width:7.68879986;stroke-linecap:round;stroke-linejoin:round"
       transform="matrix(3.477818,0,0,3.477818,-1788.479,-2179.883)"
       inkscape:connector-curvature="0" />
    <path
       d="m 567.19123,755.1233 c 0,0 -34.86251,7.66387 -22.90787,32.17082"
       id="path3039"
       style="fill:none;stroke:#000000;stroke-width:7.68879986;stroke-linecap:round;stroke-linejoin:round"
       transform="matrix(3.477818,0,0,3.477818,-1788.479,-2179.883)"
       inkscape:connector-curvature="0" />
    <path
       d="m 578.46304,734.4698 c 0,0 -21.37983,-16.78985 -30.2257,-13.39461"
       id="path3040"
       style="fill:none;stroke:#000000;stroke-width:7.68879986;stroke-linecap:round;stroke-linejoin:round"
       transform="matrix(3.477818,0,0,3.477818,-1788.479,-2179.883)"
       inkscape:connector-curvature="0" />
    <path
       d="m 596.64158,717.89573 c 0,0 -7.61098,-20.20974 -16.25468,-21.36832"
       id="path3041"
       sodipodi:nodetypes="cc"
       style="fill:none;stroke:#000000;stroke-width:7.68879986;stroke-linecap:round;stroke-linejoin:round"
       transform="matrix(3.477818,0,0,3.477818,-1788.479,-2179.883)"
       inkscape:connector-curvature="0" />
    <path
       d="m 305.18818,358.49094 c 0,63.60406 -40.60451,115.16535 -90.69271,115.16535 -50.0882,0 -90.69271,-51.56129 -90.69271,-115.16535 0,-63.60407 40.60451,-115.16536 90.69271,-115.16536 50.0882,0 90.69271,51.56129 90.69271,115.16536 z"
       id="path3042"
       sodipodi:cx="214.49547"
       sodipodi:cy="358.49094"
       sodipodi:rx="90.692711"
       sodipodi:ry="115.16535"
       sodipodi:type="arc"
       style="fill:url(#radialGradient880);fill-rule:evenodd;stroke-width:1pt"
       transform="matrix(1.822095,1.120814,-1.120814,1.822095,387.7333,-401.2524)" />
    <path
       d="M 659.72332,707.99467 594.03148,814.78894"
       id="path3043"
       style="fill:none;stroke:#000000;stroke-width:2.79872322"
       transform="matrix(3.477818,0,0,3.477818,-1788.479,-2179.883)"
       inkscape:connector-curvature="0" />
    <path
       d="m 273.5177,349.13376 c 0,9.14308 -7.41194,16.55502 -16.55502,16.55502 -9.14309,0 -16.55502,-7.41194 -16.55502,-16.55502 0,-9.14309 7.41193,-16.55502 16.55502,-16.55502 9.14308,0 16.55502,7.41193 16.55502,16.55502 z"
       id="path3044"
       sodipodi:cx="256.96268"
       sodipodi:cy="349.13376"
       sodipodi:rx="16.555019"
       sodipodi:ry="16.555019"
       sodipodi:type="arc"
       style="fill-rule:evenodd;stroke-width:1pt"
       transform="matrix(1.822095,1.120814,-1.120814,1.822095,398.582,-373.2904)" />
    <path
       d="m 248.32529,411.39502 c 0,7.35422 -5.96178,13.31599 -13.316,13.31599 -7.35422,0 -13.31599,-5.96177 -13.31599,-13.31599 0,-7.35422 5.96177,-13.31599 13.31599,-13.31599 7.35422,0 13.316,5.96177 13.316,13.31599 z"
       id="path3045"
       sodipodi:cx="235.00929"
       sodipodi:cy="411.39502"
       sodipodi:rx="13.315993"
       sodipodi:ry="13.315993"
       sodipodi:type="arc"
       style="fill-rule:evenodd;stroke-width:1pt"
       transform="matrix(1.822095,1.120814,-1.120814,1.822095,410.9561,-425.3608)" />
    <path
       d="m 249.04508,288.31204 c 0,6.9567 -5.63952,12.59621 -12.59621,12.59621 -6.9567,0 -12.59621,-5.63951 -12.59621,-12.59621 0,-6.95669 5.63951,-12.59621 12.59621,-12.59621 6.95669,0 12.59621,5.63952 12.59621,12.59621 z"
       id="path3046"
       sodipodi:cx="236.44887"
       sodipodi:cy="288.31204"
       sodipodi:rx="12.59621"
       sodipodi:ry="12.59621"
       sodipodi:type="arc"
       style="fill-rule:evenodd;stroke-width:1pt"
       transform="matrix(2.575703,1.584379,-1.584379,2.575703,369.8256,-712.6337)" />
    <path
       d="m 273.5177,349.13376 c 0,9.14308 -7.41194,16.55502 -16.55502,16.55502 -9.14309,0 -16.55502,-7.41194 -16.55502,-16.55502 0,-9.14309 7.41193,-16.55502 16.55502,-16.55502 9.14308,0 16.55502,7.41193 16.55502,16.55502 z"
       id="path3048"
       sodipodi:cx="256.96268"
       sodipodi:cy="349.13376"
       sodipodi:rx="16.555019"
       sodipodi:ry="16.555019"
       sodipodi:type="arc"
       style="fill-rule:evenodd;stroke-width:1pt"
       transform="matrix(-1.822095,-1.120814,-1.120814,1.822095,1153.068,94.04622)" />
    <path
       d="m 248.32529,411.39502 c 0,7.35422 -5.96178,13.31599 -13.316,13.31599 -7.35422,0 -13.31599,-5.96177 -13.31599,-13.31599 0,-7.35422 5.96177,-13.31599 13.31599,-13.31599 7.35422,0 13.316,5.96177 13.316,13.31599 z"
       id="path3049"
       sodipodi:cx="235.00929"
       sodipodi:cy="411.39502"
       sodipodi:rx="13.315993"
       sodipodi:ry="13.315993"
       sodipodi:type="arc"
       style="fill-rule:evenodd;stroke-width:1pt"
       transform="matrix(-1.822095,-1.120814,-1.120814,1.822095,1180.925,49.8195)" />
    <path
       d="m 295.83101,311.70502 c 0,7.15545 -5.80064,12.9561 -12.9561,12.9561 -7.15546,0 -12.9561,-5.80065 -12.9561,-12.9561 0,-7.15546 5.80064,-12.95611 12.9561,-12.95611 7.15546,0 12.9561,5.80065 12.9561,12.95611 z"
       id="path3051"
       sodipodi:cx="282.87491"
       sodipodi:cy="311.70502"
       sodipodi:rx="12.956102"
       sodipodi:ry="12.956102"
       sodipodi:type="arc"
       style="fill-rule:evenodd;stroke-width:1pt"
       transform="matrix(-2.600563,-1.599671,-1.599671,2.600563,1643.027,84.33198)" />
    <path
       d="m 564.57078,764.68437 c -1.36408,3.36111 60.56857,58.13891 84.5319,55.46423 1.17353,0.53846 -36.39729,27.33578 -66.41416,6.66234 1.50844,0.92787 -27.56064,-16.77745 -18.11774,-62.12657 z"
       id="path3052"
       sodipodi:nodetypes="cccc"
       style="fill-opacity:0.75;fill-rule:evenodd;stroke:#000000;stroke-width:0.61510401pt"
       transform="matrix(3.477818,0,0,3.477818,-1788.479,-2179.883)"
       inkscape:connector-curvature="0" />
    <path
       d="m 568.26047,774.5442 c -4.29671,2.2999 -1.51193,24.02587 9.86626,41.15208 2.23927,2.11806 6.65719,4.17549 8.35729,-2.61938 -13.1995,-14.68867 -13.32072,-19.04599 -13.68439,-32.11794 -0.12122,-4.35731 -0.18184,-6.53598 -4.53916,-6.41476 z"
       id="path3053"
       sodipodi:nodetypes="ccccc"
       style="fill:url(#linearGradient1142);fill-opacity:1;fill-rule:evenodd;stroke-width:3.75;stroke-linecap:round;stroke-linejoin:round"
       transform="matrix(3.477818,0,0,3.477818,-1788.479,-2179.883)"
       inkscape:connector-curvature="0" />
    <path
       d="m 562.33911,785.40589 7.84454,0.0651 -2.01324,7.18984 6.59879,5.27832 0.54016,6.1951 -9.78655,-1.1411 c 0,0 -3.82631,-11.46656 -3.1837,-17.58722 z"
       id="path3054"
       sodipodi:nodetypes="ccccccc"
       style="fill:#ffffff;fill-opacity:1;fill-rule:evenodd;stroke:none"
       transform="matrix(3.477818,0,0,3.477818,-1788.479,-2179.883)"
       inkscape:connector-curvature="0" />
    <path
       d="m 630.85412,831.39946 -3.2738,-3.89457 -6.0292,1.01676 -7.39152,-4.09517 -5.9349,1.85682 4.77775,8.61695 c 0,0 12.10533,-1.22073 17.85167,-3.50079 z"
       id="path3055"
       sodipodi:nodetypes="ccccccc"
       style="fill:#ffffff;fill-opacity:1;fill-rule:evenodd;stroke:none"
       transform="matrix(3.477818,0,0,3.477818,-1788.479,-2179.883)"
       inkscape:connector-curvature="0" />
    <path
       d="m 249.04508,288.31204 c 0,6.9567 -5.63952,12.59621 -12.59621,12.59621 -6.9567,0 -12.59621,-5.63951 -12.59621,-12.59621 0,-6.95669 5.63951,-12.59621 12.59621,-12.59621 6.95669,0 12.59621,5.63952 12.59621,12.59621 z"
       id="path3057"
       sodipodi:cx="236.44887"
       sodipodi:cy="288.31204"
       sodipodi:rx="12.59621"
       sodipodi:ry="12.59621"
       sodipodi:type="arc"
       style="fill-rule:evenodd;stroke-width:1pt"
       transform="matrix(2.575703,1.584379,-1.584379,2.575703,235.4894,-790.525)" />
  </g>
</svg>
