<?xml version="1.0" encoding="UTF-8" standalone="no"?>
<!-- Created with Inkscape (http://www.inkscape.org/) -->

<svg
   xmlns:dc="http://purl.org/dc/elements/1.1/"
   xmlns:cc="http://creativecommons.org/ns#"
   xmlns:rdf="http://www.w3.org/1999/02/22-rdf-syntax-ns#"
   xmlns:svg="http://www.w3.org/2000/svg"
   xmlns="http://www.w3.org/2000/svg"
   xmlns:xlink="http://www.w3.org/1999/xlink"
   xmlns:sodipodi="http://sodipodi.sourceforge.net/DTD/sodipodi-0.dtd"
   xmlns:inkscape="http://www.inkscape.org/namespaces/inkscape"
   width="100"
   height="100"
   id="svg2"
   version="1.1"
   inkscape:version="0.48.2 r9819"
   sodipodi:docname="属性マーク(火).svg"
   inkscape:export-filename="C:\Users\take\Desktop\BoBB\属性マーク(火).png"
   inkscape:export-xdpi="64"
   inkscape:export-ydpi="64">
  <defs
     id="defs4">
    <linearGradient
       inkscape:collect="always"
       id="linearGradient3884">
      <stop
         style="stop-color:#ff0000;stop-opacity:1;"
         offset="0"
         id="stop3886" />
      <stop
         style="stop-color:#ffff00;stop-opacity:1"
         offset="1"
         id="stop3888" />
    </linearGradient>
    <linearGradient
       inkscape:collect="always"
       id="linearGradient3868">
      <stop
         style="stop-color:#ffd100;stop-opacity:1;"
         offset="0"
         id="stop3870" />
      <stop
         style="stop-color:#ffd100;stop-opacity:0;"
         offset="1"
         id="stop3872" />
    </linearGradient>
    <linearGradient
       inkscape:collect="always"
       xlink:href="#linearGradient3884"
       id="linearGradient5342"
       gradientUnits="userSpaceOnUse"
       x1="236.48431"
       y1="1040.0282"
       x2="236.78659"
       y2="1154.0006"
       gradientTransform="matrix(0.74034804,0,0,0.74034804,63.67934,294.63848)" />
    <radialGradient
       inkscape:collect="always"
       xlink:href="#linearGradient3868"
       id="radialGradient5344"
       gradientUnits="userSpaceOnUse"
       gradientTransform="matrix(1.4233275,-0.03602801,0.04575351,1.8075449,-146.51744,-854.74262)"
       cx="235.12094"
       cy="1088.285"
       fx="235.12094"
       fy="1088.285"
       r="20.0625" />
    <linearGradient
       inkscape:collect="always"
       xlink:href="#linearGradient3884"
       id="linearGradient5356"
       gradientUnits="userSpaceOnUse"
       gradientTransform="matrix(0.74034804,0,0,0.74034804,211.89534,358.25429)"
       x1="236.48431"
       y1="1040.0282"
       x2="236.78659"
       y2="1154.0006" />
    <radialGradient
       inkscape:collect="always"
       xlink:href="#linearGradient3868"
       id="radialGradient5358"
       gradientUnits="userSpaceOnUse"
       gradientTransform="matrix(1.4233275,-0.03602801,0.04575351,1.8075449,1.6985638,-791.12681)"
       cx="235.12094"
       cy="1088.285"
       fx="235.12094"
       fy="1088.285"
       r="20.0625" />
    <radialGradient
       inkscape:collect="always"
       xlink:href="#linearGradient3868"
       id="radialGradient5364"
       gradientUnits="userSpaceOnUse"
       gradientTransform="matrix(0.80982733,0.08621529,-0.17006218,2.3984776,316.37792,-1438.2714)"
       cx="138.52838"
       cy="1064.6899"
       fx="138.52838"
       fy="1064.6899"
       r="20.0625" />
    <linearGradient
       inkscape:collect="always"
       xlink:href="#linearGradient3884"
       id="linearGradient5366"
       gradientUnits="userSpaceOnUse"
       gradientTransform="matrix(0.65039899,0,0,0.79696597,216.88482,298.26678)"
       x1="45.237293"
       y1="974.98627"
       x2="46.877789"
       y2="1145.1141" />
  </defs>
  <sodipodi:namedview
     id="base"
     pagecolor="#ffffff"
     bordercolor="#666666"
     borderopacity="1.0"
     inkscape:pageopacity="0.0"
     inkscape:pageshadow="2"
     inkscape:zoom="1.185"
     inkscape:cx="25.014509"
     inkscape:cy="47.496759"
     inkscape:document-units="px"
     inkscape:current-layer="layer1"
     showgrid="false"
     inkscape:window-width="1920"
     inkscape:window-height="1033"
     inkscape:window-x="-4"
     inkscape:window-y="-4"
     inkscape:window-maximized="1" />
  <metadata
     id="metadata7">
    <rdf:RDF>
      <cc:Work
         rdf:about="">
        <dc:format>image/svg+xml</dc:format>
        <dc:type
           rdf:resource="http://purl.org/dc/dcmitype/StillImage" />
        <dc:title></dc:title>
      </cc:Work>
    </rdf:RDF>
  </metadata>
  <g
     inkscape:label="レイヤー 1"
     inkscape:groupmode="layer"
     id="layer1"
     transform="translate(0,-952.36218)">
    <path
       sodipodi:type="arc"
       style="fill:#d40000;fill-opacity:1;fill-rule:evenodd;stroke:none"
       id="path2987"
       sodipodi:cx="49.676491"
       sodipodi:cy="55.097229"
       sodipodi:rx="41.919201"
       sodipodi:ry="41.919201"
       d="m 91.595692,55.097229 c 0,23.151335 -18.767866,41.919201 -41.919201,41.919201 -23.151336,0 -41.9192011,-18.767866 -41.9192011,-41.919201 0,-23.151335 18.7678651,-41.919201 41.9192011,-41.919201 23.151335,0 41.919201,18.767866 41.919201,41.919201 z"
       transform="matrix(1.163701,0,0,1.163701,-7.5353898,939.46407)" />
    <g
       id="g5338"
       transform="matrix(1.5375177,0,0,1.2547588,-333.46426,-374.25285)">
      <path
         sodipodi:nodetypes="sssssssscsssssssscsssssssssss"
         inkscape:connector-curvature="0"
         id="path3093"
         d="m 240.77433,1136.0514 c -4.3631,-1.4337 -8.22799,-4.372 -11.48675,-7.6081 -2.46611,-2.449 -4.57111,-5.4082 -5.81797,-8.6524 -1.13529,-2.9539 -1.42132,-6.2346 -1.34261,-9.3982 0.0844,-3.3928 0.70037,-6.8354 1.93932,-9.995 2.03008,-5.1771 5.00587,-10.108 8.80154,-14.172 4.18236,-4.4781 10.13758,-6.9075 14.91787,-10.7408 2.85761,-2.2915 5.74244,-4.598 8.20482,-7.3098 2.77475,-3.0558 7.30976,-9.995 7.30976,-9.995 0,0 -2.9631,8.0542 -3.87865,12.2327 -0.68645,3.1329 -0.99414,6.3464 -1.19343,9.5474 -0.18539,2.9778 -0.37447,5.9907 0,8.9507 0.22555,1.7828 0.54483,3.611 1.34261,5.2213 0.53439,1.0786 1.19437,2.234 2.23768,2.8344 1.21902,0.7015 2.79017,0.8309 4.177,0.5967 1.71051,-0.2889 3.23524,-1.3481 4.62454,-2.3869 1.26752,-0.9478 2.32186,-2.1729 3.28193,-3.4311 0.52767,-0.6915 1.34261,-2.2377 1.34261,-2.2377 0,0 -0.52066,3.2717 -0.59672,4.9229 -0.0801,1.7393 0.1058,3.4807 0.14918,5.2213 0.0582,2.3369 0.0894,4.6745 0.14918,7.0114 0.0852,3.3321 0.58666,6.6743 0.29836,9.995 -0.1493,1.7197 -0.46829,3.4448 -1.04425,5.072 -0.54173,1.5305 -1.2503,3.0374 -2.23768,4.3262 -1.43417,1.872 -3.29827,3.4087 -5.22125,4.7737 -1.7961,1.2749 -3.76808,2.3269 -5.81797,3.1328 -2.20006,0.8649 -4.53167,1.3941 -6.86222,1.7901 -2.41014,0.4095 -4.86537,0.5582 -7.30975,0.5967 -1.99129,0.031 -4.07514,0.3234 -5.96715,-0.2983 z"
         style="fill:url(#linearGradient5366);fill-opacity:1;stroke:none" />
      <path
         inkscape:connector-curvature="0"
         id="path3095"
         d="m 252.74025,1077.807 c 0,0 -2.90298,10.4803 -4.75,15.5 -0.84209,2.2886 -1.91239,4.4193 -3.28125,6.4375 -1.50752,2.2226 -4.91302,4.9478 -7.0625,6.5938 -5.45804,2.606 -9.21875,7.9939 -9.21875,14.2187 0,8.7744 7.46987,15.875 16.65625,15.875 8.39413,0 15.30257,-5.9374 16.4375,-13.6562 0.24372,-0.5691 0.46406,-1.1246 0.625,-1.5625 0.41237,-1.1221 0.76295,-2.2801 1.0625,-3.4375 0.53519,-2.0678 0.70203,-4.2128 1.34375,-6.25 1.03776,-3.2945 4,-9.5625 4,-9.5625 0,0 -3.97746,6.7403 -5.9375,8.0625 -1.96004,1.3222 -1.97323,1.4828 -4.03125,1.0312 -0.0728,-0.016 -0.17137,-0.036 -0.25,-0.062 -1.48716,-1.8834 -3.38769,-3.4326 -5.59375,-4.5312 -0.45458,-0.4683 -0.71875,-0.75 -0.71875,-0.75 0,0 -1.67607,-1.4351 -2.09375,-2.4063 -0.63143,-1.4682 -0.51945,-3.1838 -0.46875,-4.7812 0.22212,-6.9945 3.28125,-20.7188 3.28125,-20.7188 z"
         style="fill:url(#radialGradient5364);fill-opacity:1;fill-rule:evenodd;stroke:none" />
    </g>
    <g
       transform="matrix(1.7562521,0,0,1.7562521,362.33984,1001.9877)"
       style="font-size:40px;font-style:normal;font-variant:normal;font-weight:normal;font-stretch:normal;line-height:125%;letter-spacing:0px;word-spacing:0px;fill:#550000;fill-opacity:1;stroke:none;font-family:Meiryo;-inkscape-font-specification:Meiryo"
       id="flowRoot2989">
      <path
         d="m -178.54297,6.3681526 c -1.45835,3.0338622 -3.62957,5.6543024 -6.51367,7.8613284 -2.88413,2.207032 -6.29233,3.876952 -10.22461,5.009765 l -2.03125,-4.53125 c 2.6302,-0.6901 4.95117,-1.679683 6.96289,-2.96875 2.01171,-1.289055 3.65559,-2.7831943 4.93164,-4.4824215 1.27603,-1.6992069 2.15168,-3.2812366 2.62695,-4.7460937 0.47525,-1.4648275 0.71288,-3.23891422 0.7129,-5.3222657 l 0,-12.6367191 5.72265,0 0,11.3671879 c -2e-5,1.484395 0.52407,3.51889814 1.57227,6.1035156 1.04815,2.5846482 2.8613,4.9446719 5.43945,7.0800781 2.57809,2.1354224 5.65101,3.8606814 9.21875,5.1757814 l -3.20312,4.746094 c -2.94275,-0.989584 -5.81709,-2.633463 -8.62305,-4.931641 -2.80602,-2.298171 -5.00328,-4.8730387 -6.5918,-7.7246094 z m 16.89453,-16.8554686 c -0.74222,2.4088795 -1.7611,5.1497622 -3.05664,8.2226561 -1.2956,3.07293328 -2.2624,5.0130355 -2.90039,5.8203125 l -4.70703,-1.40625 c 0.78122,-1.1979002 1.66989,-3.2096169 2.66602,-6.0351562 0.99606,-2.8254968 1.76103,-5.4231504 2.29492,-7.7929684 z m -24.3164,0.6445311 c -0.39064,2.0573169 -1.084,4.440127 -2.08008,7.1484375 -0.99611,2.70835074 -1.96941,4.8828277 -2.91992,6.5234375 l -5.03907,-1.6796875 c 0.9375,-1.53644153 1.85221,-3.5481583 2.74414,-6.0351562 0.89193,-2.4869554 1.55273,-4.8046614 1.98243,-6.9531254 z"
         style="font-weight:bold;fill:#550000;-inkscape-font-specification:Meiryo Bold"
         id="path3044"
         inkscape:connector-curvature="0" />
    </g>
  </g>
</svg>
