<?xml version="1.0" encoding="UTF-8" standalone="no"?>
<!-- Created with Inkscape (http://www.inkscape.org/) -->

<svg
   xmlns:dc="http://purl.org/dc/elements/1.1/"
   xmlns:cc="http://creativecommons.org/ns#"
   xmlns:rdf="http://www.w3.org/1999/02/22-rdf-syntax-ns#"
   xmlns:svg="http://www.w3.org/2000/svg"
   xmlns="http://www.w3.org/2000/svg"
   xmlns:xlink="http://www.w3.org/1999/xlink"
   xmlns:sodipodi="http://sodipodi.sourceforge.net/DTD/sodipodi-0.dtd"
   xmlns:inkscape="http://www.inkscape.org/namespaces/inkscape"
   width="100"
   height="100"
   id="svg2"
   version="1.1"
   inkscape:version="0.48.2 r9819"
   sodipodi:docname="属性マーク(水).svg"
   inkscape:export-filename="C:\Users\take\Desktop\BoBB\属性マーク(水).png"
   inkscape:export-xdpi="64"
   inkscape:export-ydpi="64">
  <defs
     id="defs4">
    <linearGradient
       inkscape:collect="always"
       id="linearGradient5393">
      <stop
         style="stop-color:#0066ff;stop-opacity:1"
         offset="0"
         id="stop5395" />
      <stop
         style="stop-color:#00aad4;stop-opacity:0;"
         offset="1"
         id="stop5397" />
    </linearGradient>
    <linearGradient
       inkscape:collect="always"
       id="linearGradient5385">
      <stop
         style="stop-color:#aaccff;stop-opacity:1"
         offset="0"
         id="stop5387" />
      <stop
         style="stop-color:#003380;stop-opacity:1"
         offset="1"
         id="stop5389" />
    </linearGradient>
    <radialGradient
       inkscape:collect="always"
       xlink:href="#linearGradient5385"
       id="radialGradient5391"
       cx="44.548759"
       cy="63.301598"
       fx="44.548759"
       fy="63.301598"
       r="41.919201"
       gradientUnits="userSpaceOnUse" />
    <linearGradient
       inkscape:collect="always"
       xlink:href="#linearGradient5393"
       id="linearGradient5399"
       x1="57.819225"
       y1="1001.7209"
       x2="35.867744"
       y2="1090.3285"
       gradientUnits="userSpaceOnUse" />
  </defs>
  <sodipodi:namedview
     id="base"
     pagecolor="#ffffff"
     bordercolor="#666666"
     borderopacity="1.0"
     inkscape:pageopacity="0.0"
     inkscape:pageshadow="2"
     inkscape:zoom="0.83792154"
     inkscape:cx="-62.939167"
     inkscape:cy="250.82446"
     inkscape:document-units="px"
     inkscape:current-layer="layer1"
     showgrid="false"
     inkscape:window-width="1920"
     inkscape:window-height="1033"
     inkscape:window-x="-4"
     inkscape:window-y="-4"
     inkscape:window-maximized="1" />
  <metadata
     id="metadata7">
    <rdf:RDF>
      <cc:Work
         rdf:about="">
        <dc:format>image/svg+xml</dc:format>
        <dc:type
           rdf:resource="http://purl.org/dc/dcmitype/StillImage" />
        <dc:title></dc:title>
      </cc:Work>
    </rdf:RDF>
  </metadata>
  <g
     inkscape:label="レイヤー 1"
     inkscape:groupmode="layer"
     id="layer1"
     transform="translate(0,-952.36218)">
    <path
       sodipodi:type="arc"
       style="fill:url(#radialGradient5391);fill-opacity:1;fill-rule:evenodd;stroke:none"
       id="path2987"
       sodipodi:cx="49.676491"
       sodipodi:cy="55.097229"
       sodipodi:rx="41.919201"
       sodipodi:ry="41.919201"
       d="m 91.595692,55.097229 a 41.919201,41.919201 0 1 1 -83.8384021,0 41.919201,41.919201 0 1 1 83.8384021,0 z"
       transform="matrix(1.163701,0,0,1.163701,-7.5353898,939.46407)" />
    <g
       transform="matrix(1.7562521,0,0,1.7562521,187.6563,921.81892)"
       style="font-size:40px;font-style:normal;font-variant:normal;font-weight:normal;font-stretch:normal;line-height:125%;letter-spacing:0px;word-spacing:0px;fill:#550000;fill-opacity:1;stroke:none;font-family:Meiryo;-inkscape-font-specification:Meiryo"
       id="flowRoot2989">
      <path
         d="m -178.54297,6.3681526 c -1.45835,3.0338622 -3.62957,5.6543024 -6.51367,7.8613284 -2.88413,2.207032 -6.29233,3.876952 -10.22461,5.009765 l -2.03125,-4.53125 c 2.6302,-0.6901 4.95117,-1.679683 6.96289,-2.96875 2.01171,-1.289055 3.65559,-2.7831943 4.93164,-4.4824215 1.27603,-1.6992069 2.15168,-3.2812366 2.62695,-4.7460937 0.47525,-1.4648275 0.71288,-3.23891422 0.7129,-5.3222657 l 0,-12.6367191 5.72265,0 0,11.3671879 c -2e-5,1.484395 0.52407,3.51889814 1.57227,6.1035156 1.04815,2.5846482 2.8613,4.9446719 5.43945,7.0800781 2.57809,2.1354224 5.65101,3.8606814 9.21875,5.1757814 l -3.20312,4.746094 c -2.94275,-0.989584 -5.81709,-2.633463 -8.62305,-4.931641 -2.80602,-2.298171 -5.00328,-4.8730387 -6.5918,-7.7246094 z m 16.89453,-16.8554686 c -0.74222,2.4088795 -1.7611,5.1497622 -3.05664,8.2226561 -1.2956,3.07293328 -2.2624,5.0130355 -2.90039,5.8203125 l -4.70703,-1.40625 c 0.78122,-1.1979002 1.66989,-3.2096169 2.66602,-6.0351562 0.99606,-2.8254968 1.76103,-5.4231504 2.29492,-7.7929684 z m -24.3164,0.6445311 c -0.39064,2.0573169 -1.084,4.440127 -2.08008,7.1484375 -0.99611,2.70835074 -1.96941,4.8828277 -2.91992,6.5234375 l -5.03907,-1.6796875 c 0.9375,-1.53644153 1.85221,-3.5481583 2.74414,-6.0351562 0.89193,-2.4869554 1.55273,-4.8046614 1.98243,-6.9531254 z"
         style="font-weight:bold;fill:#550000;-inkscape-font-specification:Meiryo Bold"
         id="path3044"
         inkscape:connector-curvature="0" />
    </g>
    <path
       style="fill:url(#linearGradient5399);fill-opacity:1;fill-rule:evenodd;stroke:none"
       d="m 52.312633,959.95593 c 0,0 -1.60839,6.9526 -4.21875,12.65625 -2.74436,5.99649 -6.31243,8.63859 -10.53125,11.81249 -2.48075,1.8663 -4.69992,3.7618 -6.65625,5.5313 -9.20105,6.0293 -15.28125,16.39663 -15.28125,28.21873 0,18.6425 15.10748,33.75 33.75,33.75 18.64252,0 33.75,-15.1075 33.75,-33.75 0,-7.605 -2.53767,-14.6061 -6.78125,-20.25003 -0.0137,-0.018 -0.0175,-0.044 -0.0312,-0.062 -2.4635,-3.2627 -5.50055,-6.0315 -8.96875,-8.2187 -0.0364,-0.023 -0.0572,-0.071 -0.0937,-0.094 -2.42741,-2.0095 -4.93688,-3.9341 -6.90625,-6.375 -1.93894,-2.4032 -3.53466,-5.15431 -4.65625,-8.03124 -1.884,-4.83254 -3.375,-15.1875 -3.375,-15.1875 z"
       id="path5378"
       inkscape:connector-curvature="0" />
    <flowRoot
       xml:space="preserve"
       id="flowRoot5368"
       style="font-size:40px;font-style:normal;font-variant:normal;font-weight:normal;font-stretch:normal;line-height:125%;letter-spacing:0px;word-spacing:0px;fill:#afc6e9;fill-opacity:1;stroke:none;font-family:Meiryo;-inkscape-font-specification:Meiryo"
       transform="matrix(1.8726487,0,0,1.8726487,809.44274,991.88074)"><flowRegion
         id="flowRegion5370"><rect
           id="rect5372"
           width="81.012657"
           height="83.544304"
           x="-425.31647"
           y="-7.1729956"
           style="fill:#afc6e9" /></flowRegion><flowPara
         id="flowPara5374"
         style="font-weight:bold;fill:#afc6e9;-inkscape-font-specification:Meiryo Bold">水</flowPara></flowRoot>  </g>
</svg>
